<svg xmlns="http://www.w3.org/2000/svg" xmlns:xlink="http://www.w3.org/1999/xlink" viewBox="0 0 22.020632 10.303635">
  <defs>
    <path id="a" d="M108.42447 143.13931h-1.23862v-.11797h.15729q.0983 0 .13762-.0393.0393-.0393.0393-.11796v-2.81146q0-.0786-.0393-.11796-.0393-.0393-.13762-.0393h-.11797v-.11797h1.14031q.47186 0 .68812.19661.23593.17694.23593.57015 0 .27525-.11796.4522-.11797.17694-.49152.31457.4522.13762.60948.39321.15728.25558.15728.57015 0 .39321-.27524.62914-.27525.23593-.7471.23593zm-.41288-.11797h.35389q.33423 0 .51118-.1966.1966-.21627.1966-.58982 0-.43253-.1966-.62914-.19661-.21626-.58982-.21626h-.45219v1.47454q0 .0786.0393.11796.059.0393.13762.0393zm.7471-1.92673q.19661-.17694.19661-.5505 0-.35388-.19661-.49151-.1966-.15728-.51117-.15728h-.23593q-.0786 0-.13762.0393-.0393.0393-.0393.11796v1.21896h.51117q.21627 0 .41287-.17695zm2.18233.49151.55049-1.45488q.0197-.11796-.0393-.17694-.0393-.059-.17695-.059h-.0393v-.11797h.76676v.11797h-.059q-.0983 0-.17694.0786-.0786.059-.13763.1966l-.60947 1.55319v1.14031q0 .0786.0393.11796.059.0393.13762.0393h.17695v.11797h-1.02235v-.11797h.17694q.0983 0 .13763-.0393.0393-.0393.0393-.11796v-1.02235l-.66846-1.73013q-.0393-.0983-.0983-.15728-.059-.059-.15729-.059h-.0393v-.11797h.86507v.11797h-.11797q-.11796 0-.13762.059-.0197.059.0197.17694l.53083 1.45488z" style="line-height:1.25;-inkscape-font-specification:'SimSun-ExtB, Normal'"/>
  </defs>
  <g transform="translate(-99.600547 -137.86275)">
    <path fill="#f9f9f9" fill-rule="evenodd" stroke="#025" stroke-dashoffset="3.4392" stroke-linejoin="round" stroke-width=".254857" d="M116.85609 139.07248a3.8742132 4.483206 0 0 0-3.30367 2.14679.89459061 1.1565231 0 0 0-.40247-.12382.89459061 1.1565231 0 0 0-.89465 1.15648.89459061 1.1565231 0 0 0 .73199 1.1365 3.8742132 4.483206 0 0 0-.005.16721 3.8742132 4.483206 0 0 0 3.87419 4.48332 3.8742132 4.483206 0 0 0 3.87254-4.43253.89459061 1.1565231 0 0 0 .76473-1.14425.89459061 1.1565231 0 0 0-.89465-1.15647.89459061 1.1565231 0 0 0-.34731.0914 3.8742132 4.483206 0 0 0-3.39531-2.32467z" paint-order="fill markers stroke"/>
    <path fill="none" stroke="#025" stroke-width=".158347" d="M116.17295 142.24618c.13252-.17423.35276-.27801.57149-.26929.20079.008.39589.10974.51739.26979"/>
    <ellipse cx="115.31554" cy="142.21671" fill="#ff0" fill-rule="evenodd" stroke="#025" stroke-dashoffset="3.4392" stroke-linejoin="round" stroke-width=".158347" paint-order="fill markers stroke" rx=".83935666" ry=".8593415"/>
    <ellipse cx="118.1134" cy="142.21671" fill="#ff0" fill-rule="evenodd" stroke="#025" stroke-dashoffset="3.4392" stroke-linejoin="round" stroke-width=".158347" paint-order="fill markers stroke" rx=".83935666" ry=".8593415"/>
    <path fill="none" stroke="#025" stroke-width=".115593" d="M116.5856 145.20212c.36586.0497.74869-.0374 1.05709-.2404.30839-.20302.53969-.52026.63867-.87597.0383-.13779.0574-.28092.0565-.42394"/>
    <path fill="none" stroke="#025" stroke-dashoffset=".18" stroke-width=".0316694" d="M113.29708 141.44729c-.17377-.009-.35.0538-.47963.16987-.14959.1339-.2323.33073-.2598.5296-.0164.11842-.0144.2412.0227.35482.0372.11363.11209.21757.2171.27469.0954.0519.21274.062.31562.0271.10289-.0349.18983-.11429.23396-.21357.0441-.0993.0448-.21701.002-.31678-.043-.0998-.12908-.1801-.23158-.21615m7.35484-.42388c.17377-.009.35001.0538.47964.16987.14958.1339.2323.33072.2598.52959.0164.11842.0144.2412-.0227.35483-.0372.11362-.11208.21757-.2171.27469-.0954.0519-.21274.062-.31562.0271-.10289-.0349-.18983-.11429-.23396-.21358-.0441-.0993-.0448-.217-.002-.31677.043-.0998.12909-.18009.23158-.21615"/>
    <text xml:space="preserve" x="99.517235" y="147.40248" fill="#ff0" stroke-width=".125828" font-family="SimSun-ExtB" font-size="5.0331" font-weight="400" letter-spacing="0" style="line-height:1.25;-inkscape-font-specification:'SimSun-ExtB, Normal';font-variant-ligatures:normal;font-variant-caps:normal;font-variant-numeric:normal;font-variant-east-asian:normal" word-spacing="0"><tspan style="-inkscape-font-specification:'SimSun-ExtB, Normal';font-variant-ligatures:normal;font-variant-caps:normal;font-variant-numeric:normal;font-variant-east-asian:normal">GEEKS</tspan></text>
    <use xlink:href="#a" fill="#f9f9f9" stroke-width=".125828" aria-label="BY" font-family="SimSun-ExtB" font-size="5.0331" letter-spacing="0" style="line-height:1.25;-inkscape-font-specification:'SimSun-ExtB, Normal'" transform="translate(.06310418)" word-spacing="0"/>
    <text xml:space="preserve" x="99.580887" y="143.19829" fill="#ff0" stroke-width=".125828" font-family="SimSun-ExtB" font-size="5.0331" font-weight="400" letter-spacing="0" style="line-height:1.25;-inkscape-font-specification:'SimSun-ExtB, Normal';font-variant-ligatures:normal;font-variant-caps:normal;font-variant-numeric:normal;font-variant-east-asian:normal" word-spacing="0">ASK</text>
    <use xlink:href="#a" fill="#f9f9f9" stroke-width=".125828" aria-label="BY" font-family="SimSun-ExtB" font-size="5.0331" letter-spacing="0" style="line-height:1.25;-inkscape-font-specification:'SimSun-ExtB, Normal'" transform="translate(-.72990857 -12.926832)" word-spacing="0"/>
    <text xml:space="preserve" x="170.38727" y="66.608627" fill="#ff0" stroke-width=".0626494" font-family="SimSun-ExtB" font-size="2.50597" font-weight="400" letter-spacing="0" style="line-height:1.25;-inkscape-font-specification:'SimSun-ExtB, Normal';font-variant-ligatures:normal;font-variant-caps:normal;font-variant-numeric:normal;font-variant-east-asian:normal" transform="rotate(28.192)" word-spacing="0"><tspan x="170.38727" y="66.608627" style="-inkscape-font-specification:'SimSun-ExtB, Normal';font-variant-ligatures:normal;font-variant-caps:normal;font-variant-numeric:normal;font-variant-east-asian:normal">!</tspan></text>
    <text xml:space="preserve" x="-172.34193" y="-64.749954" fill="#ff0" stroke-width=".0626494" font-family="SimSun-ExtB" font-size="2.50597" font-weight="400" letter-spacing="0" style="line-height:1.25;-inkscape-font-specification:'SimSun-ExtB, Normal';font-variant-ligatures:normal;font-variant-caps:normal;font-variant-numeric:normal;font-variant-east-asian:normal" transform="rotate(-151.808)" word-spacing="0"><tspan x="-172.34193" y="-64.749954" style="-inkscape-font-specification:'SimSun-ExtB, Normal';font-variant-ligatures:normal;font-variant-caps:normal;font-variant-numeric:normal;font-variant-east-asian:normal">?</tspan></text>
    <path fill="none" stroke="#025" stroke-width=".05275468" d="M115.3586629 142.12594945c.06160713.0760972.03327385.18836754-.042168.24334696-.10042945.07318967-.24190046.03549421-.30949644-.06356187-.08499636-.12455484-.03778995-.29557574.0849556-.37564605.14858085-.09692352.34933157-.0401298.44179581.10634948.10892243.172552.04249741.40313792-.12774335.50794528-.19648993.1209674-.45697806.04488374-.57409503-.14913723-.1330435-.2204058-.04728291-.51084178.1705311-.6402445.24430673-.14514192.56472281-.0496917.70639412.19192497.15415624.26290935.05648706.60650012-.1997481.76442861"/>
    <text xml:space="preserve" x="-118.69942" y="142.67302" fill="#025" stroke-width=".040489" font-family="Microsoft JhengHei" font-size="1.61956" font-weight="400" letter-spacing="0" style="line-height:1.25;-inkscape-font-specification:'Microsoft JhengHei, Normal';font-variant-ligatures:normal;font-variant-caps:normal;font-variant-numeric:normal;font-variant-east-asian:normal" transform="scale(-1 1)" word-spacing="0"><tspan x="-118.69942" y="142.67302" style="-inkscape-font-specification:'Microsoft JhengHei, Normal';font-variant-ligatures:normal;font-variant-caps:normal;font-variant-numeric:normal;font-variant-east-asian:normal">&gt;</tspan></text>
  </g>
</svg>
