<svg xmlns="http://www.w3.org/2000/svg" xmlns:xlink="http://www.w3.org/1999/xlink" viewBox="0 0 22.02063 10.30363">
  <defs>
    <path id="a" d="M108.42447 143.13931h-1.23862v-.11797h.15729q.0983 0 .13762-.0393.0393-.0393.0393-.11796v-2.81146q0-.0786-.0393-.11796-.0393-.0393-.13762-.0393h-.11797v-.11797h1.14031q.47186 0 .68812.19661.23593.17694.23593.57015 0 .27525-.11796.4522-.11797.17694-.49152.31457.4522.13762.60948.39321.15728.25558.15728.57015 0 .39321-.27524.62914-.27525.23593-.7471.23593zm-.41288-.11797h.35389q.33423 0 .51118-.1966.1966-.21627.1966-.58982 0-.43253-.1966-.62914-.19661-.21626-.58982-.21626h-.45219v1.47454q0 .0786.0393.11796.059.0393.13762.0393zm.7471-1.92673q.19661-.17694.19661-.5505 0-.35388-.19661-.49151-.1966-.15728-.51117-.15728h-.23593q-.0786 0-.13762.0393-.0393.0393-.0393.11796v1.21896h.51117q.21627 0 .41287-.17695zm2.18233.49151.55049-1.45488q.0197-.11796-.0393-.17694-.0393-.059-.17695-.059h-.0393v-.11797h.76676v.11797h-.059q-.0983 0-.17694.0786-.0786.059-.13763.1966l-.60947 1.55319v1.14031q0 .0786.0393.11796.059.0393.13762.0393h.17695v.11797h-1.02235v-.11797h.17694q.0983 0 .13763-.0393.0393-.0393.0393-.11796v-1.02235l-.66846-1.73013q-.0393-.0983-.0983-.15728-.059-.059-.15729-.059h-.0393v-.11797h.86507v.11797h-.11797q-.11796 0-.13762.059-.0197.059.0197.17694l.53083 1.45488z" style="line-height:1.25;-inkscape-font-specification:'SimSun-ExtB, Normal'"/>
  </defs>
  <g transform="translate(-99.60055 -137.86275)">
    <path fill="#f9f9f9" fill-rule="evenodd" stroke="#025" stroke-dashoffset="3.4392" stroke-linejoin="round" stroke-width=".25486" d="M116.85609 139.07248a3.87421 4.4832 0 0 0-3.30367 2.14679.8946 1.15652 0 0 0-.40247-.12382.8946 1.15652 0 0 0-.89465 1.15648.8946 1.15652 0 0 0 .73199 1.1365 3.87421 4.4832 0 0 0-.005.16721 3.87421 4.4832 0 0 0 3.87419 4.48332 3.87421 4.4832 0 0 0 3.87254-4.43253.8946 1.15652 0 0 0 .76473-1.14425.8946 1.15652 0 0 0-.89465-1.15647.8946 1.15652 0 0 0-.34731.0914 3.87421 4.4832 0 0 0-3.39531-2.32467z" paint-order="fill markers stroke"/>
    <path fill="none" stroke="#025" stroke-width=".15835" d="M116.17295 142.24618c.13252-.17423.35276-.27801.57149-.26929.20079.008.39589.10974.51739.26979"/>
    <ellipse cx="115.31554" cy="142.21671" fill="#ff0" fill-rule="evenodd" stroke="#025" stroke-dashoffset="3.4392" stroke-linejoin="round" stroke-width=".15835" paint-order="fill markers stroke" rx=".83936" ry=".85934"/>
    <ellipse cx="118.1134" cy="142.21671" fill="#ff0" fill-rule="evenodd" stroke="#025" stroke-dashoffset="3.4392" stroke-linejoin="round" stroke-width=".15835" paint-order="fill markers stroke" rx=".83936" ry=".85934"/>
    <path fill="none" stroke="#025" stroke-width=".11559" d="M116.5856 145.20212c.36586.0497.74869-.0374 1.05709-.2404.30839-.20302.53969-.52026.63867-.87597a1.54917 1.54917 0 0 0 .0565-.42394"/>
    <path fill="none" stroke="#025" stroke-dashoffset=".18" stroke-width=".03167" d="M113.29708 141.44729c-.17377-.009-.35.0538-.47963.16987-.14959.1339-.2323.33073-.2598.5296-.0164.11842-.0144.2412.0227.35482.0372.11363.11209.21757.2171.27469.0954.0519.21274.062.31562.0271.10289-.0349.18983-.11429.23396-.21357.0441-.0993.0448-.21701.002-.31678-.043-.0998-.12908-.1801-.23158-.21615m7.35484-.42388c.17377-.009.35001.0538.47964.16987.14958.1339.2323.33072.2598.52959.0164.11842.0144.2412-.0227.35483-.0372.11362-.11208.21757-.2171.27469-.0954.0519-.21274.062-.31562.0271-.10289-.0349-.18983-.11429-.23396-.21358-.0441-.0993-.0448-.217-.002-.31677.043-.0998.12909-.18009.23158-.21615"/>
    <text xml:space="preserve" x="99.51723" y="147.40248" fill="#ff0" stroke-width=".12583" font-family="SimSun-ExtB" font-size="5.0331" font-weight="400" letter-spacing="0" style="line-height:1.25;-inkscape-font-specification:'SimSun-ExtB, Normal';font-variant-ligatures:normal;font-variant-caps:normal;font-variant-numeric:normal;font-variant-east-asian:normal" word-spacing="0"><tspan style="-inkscape-font-specification:'SimSun-ExtB, Normal';font-variant-ligatures:normal;font-variant-caps:normal;font-variant-numeric:normal;font-variant-east-asian:normal">GEEKS</tspan></text>
    <use xlink:href="#a" fill="#f9f9f9" stroke-width=".12583" aria-label="BY" font-family="SimSun-ExtB" font-size="5.0331" letter-spacing="0" style="line-height:1.25;-inkscape-font-specification:'SimSun-ExtB, Normal'" transform="translate(.0631)" word-spacing="0"/>
    <text xml:space="preserve" x="99.58089" y="143.19829" fill="#ff0" stroke-width=".12583" font-family="SimSun-ExtB" font-size="5.0331" font-weight="400" letter-spacing="0" style="line-height:1.25;-inkscape-font-specification:'SimSun-ExtB, Normal';font-variant-ligatures:normal;font-variant-caps:normal;font-variant-numeric:normal;font-variant-east-asian:normal" word-spacing="0">ASK</text>
    <use xlink:href="#a" fill="#f9f9f9" stroke-width=".12583" aria-label="BY" font-family="SimSun-ExtB" font-size="5.0331" letter-spacing="0" style="line-height:1.25;-inkscape-font-specification:'SimSun-ExtB, Normal'" transform="translate(-.7299 -12.92683)" word-spacing="0"/>
    <text xml:space="preserve" x="170.38727" y="66.60863" fill="#ff0" stroke-width=".06265" font-family="SimSun-ExtB" font-size="2.50597" font-weight="400" letter-spacing="0" style="line-height:1.25;-inkscape-font-specification:'SimSun-ExtB, Normal';font-variant-ligatures:normal;font-variant-caps:normal;font-variant-numeric:normal;font-variant-east-asian:normal" transform="rotate(28.192)" word-spacing="0"><tspan x="170.38727" y="66.60863" style="-inkscape-font-specification:'SimSun-ExtB, Normal';font-variant-ligatures:normal;font-variant-caps:normal;font-variant-numeric:normal;font-variant-east-asian:normal">!</tspan></text>
    <text xml:space="preserve" x="-172.34193" y="-64.74995" fill="#ff0" stroke-width=".06265" font-family="SimSun-ExtB" font-size="2.50597" font-weight="400" letter-spacing="0" style="line-height:1.25;-inkscape-font-specification:'SimSun-ExtB, Normal';font-variant-ligatures:normal;font-variant-caps:normal;font-variant-numeric:normal;font-variant-east-asian:normal" transform="rotate(-151.808)" word-spacing="0"><tspan x="-172.34193" y="-64.74995" style="-inkscape-font-specification:'SimSun-ExtB, Normal';font-variant-ligatures:normal;font-variant-caps:normal;font-variant-numeric:normal;font-variant-east-asian:normal">?</tspan></text>
    <path fill="none" stroke="#025" stroke-width=".05275" d="M115.35866 142.12595c.06161.0761.03328.18837-.04217.24335-.10042.07319-.2419.0355-.3095-.06357-.08499-.12455-.03778-.29557.08496-.37564.14858-.09693.34934-.04013.4418.10635.10892.17255.0425.40314-.12774.50794-.1965.12097-.45698.04489-.5741-.14913-.13304-.22041-.04728-.51085.17053-.64025.2443-.14514.56473-.04969.7064.19193.15415.2629.05648.6065-.19975.76443"/>
    <text xml:space="preserve" x="-118.69942" y="142.67302" fill="#025" stroke-width=".04049" font-family="Microsoft JhengHei" font-size="1.61956" font-weight="400" letter-spacing="0" style="line-height:1.25;-inkscape-font-specification:'Microsoft JhengHei, Normal';font-variant-ligatures:normal;font-variant-caps:normal;font-variant-numeric:normal;font-variant-east-asian:normal" transform="scale(-1 1)" word-spacing="0"><tspan x="-118.69942" y="142.67302" style="-inkscape-font-specification:'Microsoft JhengHei, Normal';font-variant-ligatures:normal;font-variant-caps:normal;font-variant-numeric:normal;font-variant-east-asian:normal">&gt;</tspan></text>
  </g>
</svg>
