<svg xmlns="http://www.w3.org/2000/svg" xmlns:xlink="http://www.w3.org/1999/xlink" viewBox="0 0 765.99878 358.41443">
  <defs>
    <path id="a" d="M108.42447 143.13931h-1.23862v-.11797h.15729q.0983 0 .13762-.0393.0393-.0393.0393-.11796v-2.81146q0-.0786-.0393-.11796-.0393-.0393-.13762-.0393h-.11797v-.11797h1.14031q.47186 0 .68812.19661.23593.17694.23593.57015 0 .27525-.11796.4522-.11797.17694-.49152.31457.4522.13762.60948.39321.15728.25558.15728.57015 0 .39321-.27524.62914-.27525.23593-.7471.23593zm-.41288-.11797h.35389q.33423 0 .51118-.1966.1966-.21627.1966-.58982 0-.43253-.1966-.62914-.19661-.21626-.58982-.21626h-.45219v1.47454q0 .0786.0393.11796.059.0393.13762.0393zm.7471-1.92673q.19661-.17694.19661-.5505 0-.35388-.19661-.49151-.1966-.15728-.51117-.15728h-.23593q-.0786 0-.13762.0393-.0393.0393-.0393.11796v1.21896h.51117q.21627 0 .41287-.17695zm2.18233.49151.55049-1.45488q.0197-.11796-.0393-.17694-.0393-.059-.17695-.059h-.0393v-.11797h.76676v.11797h-.059q-.0983 0-.17694.0786-.0786.059-.13763.1966l-.60947 1.55319v1.14031q0 .0786.0393.11796.059.0393.13762.0393h.17695v.11797h-1.02235v-.11797h.17694q.0983 0 .13763-.0393.0393-.0393.0393-.11796v-1.02235l-.66846-1.73013q-.0393-.0983-.0983-.15728-.059-.059-.15729-.059h-.0393v-.11797h.86507v.11797h-.11797q-.11796 0-.13762.059-.0197.059.0197.17694l.53083 1.45488z" style="line-height:1.25;-inkscape-font-specification:'SimSun-ExtB, Normal'"/>
  </defs>
  <path fill="#f9f9f9" fill-rule="evenodd" stroke="#025" stroke-dashoffset="3.4392" stroke-linejoin="round" stroke-width="8.86544" d="M600.24338 42.07781a134.7665 155.95055 0 0 0-114.91996 74.67727 31.11915 40.23018 0 0 0-14.0001-4.30715 31.11915 40.23018 0 0 0-31.12091 40.22878 31.11915 40.23018 0 0 0 25.46264 39.53378 134.7665 155.95055 0 0 0-.1748 5.81649 134.7665 155.95055 0 0 0 134.7658 155.95472 134.7665 155.95055 0 0 0 134.70842-154.18797 31.11915 40.23018 0 0 0 26.60159-39.80335 31.11915 40.23018 0 0 0-31.1209-40.22844 31.11915 40.23018 0 0 0-12.08139 3.17941 134.7665 155.95055 0 0 0-118.10772-80.86492z" paint-order="fill markers stroke"/>
  <path fill="none" stroke="#025" stroke-width="5.5083" d="M576.47999 152.47668c4.60976-6.06069 12.27095-9.67073 19.8796-9.3674 6.98456.27834 13.7712 3.81737 17.9977 9.38479"/>
  <ellipse cx="546.65442" cy="151.4514" fill="#ff0" fill-rule="evenodd" stroke="#025" stroke-dashoffset="3.4392" stroke-linejoin="round" stroke-width="5.5083" paint-order="fill markers stroke" rx="29.19759" ry="29.89261"/>
  <ellipse cx="643.97968" cy="151.4514" fill="#ff0" fill-rule="evenodd" stroke="#025" stroke-dashoffset="3.4392" stroke-linejoin="round" stroke-width="5.5083" paint-order="fill markers stroke" rx="29.19759" ry="29.89261"/>
  <path fill="none" stroke="#025" stroke-width="4.02086" d="M590.83422 255.30066c12.72667 1.72883 26.04362-1.30097 36.77149-8.36245 10.7275-7.06216 18.77342-18.09752 22.21647-30.47109a53.88872 53.88872 0 0 0 1.96537-14.74698"/>
  <path fill="none" stroke="#025" stroke-dashoffset=".18" stroke-width="1.10166" d="M476.44128 124.68686c-6.04467-.31288-12.17494 1.87145-16.68418 5.90902-5.20358 4.65778-8.08069 11.50462-9.03731 18.42242-.5704 4.1193-.50091 8.39027.78966 12.34261 1.29391 3.95268 3.89912 7.56829 7.55194 9.55524 3.31839 1.80538 7.40028 2.15669 10.97901.94267 3.57924-1.21402 6.60333-3.97564 8.13841-7.42914 1.53397-3.45421 1.55852-7.54882.0708-11.01937-1.49568-3.4716-4.49008-6.26488-8.05563-7.5189m255.84212-14.74489c6.04467-.31288 12.17526 1.87145 16.68454 5.90902 5.20319 4.65779 8.08065 11.50427 9.03728 18.42207.5704 4.11931.5009 8.39028-.78965 12.34296-1.29392 3.95234-3.89877 7.56829-7.55191 9.55524-3.31838 1.80538-7.40033 2.15669-10.97906.94268-3.57923-1.21402-6.60333-3.97564-8.1384-7.4295-1.53397-3.4542-1.55848-7.54846-.0708-11.01902 1.49568-3.47159 4.49046-6.26453 8.05564-7.51889"/>
  <text xml:space="preserve" x="-2.89838" y="331.84143" fill="#ff0" stroke-width="4.37708" font-family="SimSun-ExtB" font-size="175.079" font-weight="400" letter-spacing="0" style="line-height:1.25;-inkscape-font-specification:'SimSun-ExtB, Normal';font-variant-ligatures:normal;font-variant-caps:normal;font-variant-numeric:normal;font-variant-east-asian:normal" word-spacing="0"><tspan style="-inkscape-font-specification:'SimSun-ExtB, Normal';font-variant-ligatures:normal;font-variant-caps:normal;font-variant-numeric:normal;font-variant-east-asian:normal">GEEKS</tspan></text>
  <use xlink:href="#a" width="100%" height="100%" fill="#f9f9f9" stroke-width=".12583" aria-label="BY" font-family="SimSun-ExtB" font-size="5.0331" letter-spacing="0" style="line-height:1.25;-inkscape-font-specification:'SimSun-ExtB, Normal'" transform="translate(-3462.4642 -4795.6339) scale(34.78554)" word-spacing="0"/>
  <text xml:space="preserve" x="-.6839" y="185.59631" fill="#ff0" stroke-width="4.37708" font-family="SimSun-ExtB" font-size="175.079" font-weight="400" letter-spacing="0" style="line-height:1.25;-inkscape-font-specification:'SimSun-ExtB, Normal';font-variant-ligatures:normal;font-variant-caps:normal;font-variant-numeric:normal;font-variant-east-asian:normal" word-spacing="0">ASK</text>
  <text xml:space="preserve" x="607.77863" y="-272.90686" fill="#ff0" stroke-width="2.17931" font-family="SimSun-ExtB" font-size="87.1714" font-weight="400" letter-spacing="0" style="line-height:1.25;-inkscape-font-specification:'SimSun-ExtB, Normal';font-variant-ligatures:normal;font-variant-caps:normal;font-variant-numeric:normal;font-variant-east-asian:normal" transform="rotate(28.192)" word-spacing="0"><tspan x="607.77863" y="-272.90686" style="-inkscape-font-specification:'SimSun-ExtB, Normal';font-variant-ligatures:normal;font-variant-caps:normal;font-variant-numeric:normal;font-variant-east-asian:normal">!</tspan></text>
  <text xml:space="preserve" x="-675.77277" y="337.5621" fill="#ff0" stroke-width="2.17931" font-family="SimSun-ExtB" font-size="87.1714" font-weight="400" letter-spacing="0" style="line-height:1.25;-inkscape-font-specification:'SimSun-ExtB, Normal';font-variant-ligatures:normal;font-variant-caps:normal;font-variant-numeric:normal;font-variant-east-asian:normal" transform="rotate(-151.808)" word-spacing="0"><tspan x="-675.77277" y="337.5621" style="-inkscape-font-specification:'SimSun-ExtB, Normal';font-variant-ligatures:normal;font-variant-caps:normal;font-variant-numeric:normal;font-variant-east-asian:normal">?</tspan></text>
  <path fill="none" stroke="#025" stroke-width="1.83494" d="M548.15448 148.29442c2.14261 2.64716 1.15824 6.55254-1.46784 8.46505-3.49304 2.54632-8.41467 1.2349-10.76616-2.21235-2.95681-4.33254-1.31468-10.28157 2.95686-13.06684 5.16842-3.37071 12.15196-1.39491 15.36824 3.69942 3.78881 6.00225 1.47824 14.02344-4.44352 17.66897-6.83538 4.208-15.89628 1.56187-19.97037-5.18757-4.62788-7.66708-1.64545-17.77019 5.93194-22.27144 8.49813-5.04877 19.64445-1.72884 24.57254 6.67639 5.36218 9.14512 1.96541 21.09743-6.94844 26.59111"/>
  <text xml:space="preserve" x="-664.36456" y="167.32454" fill="#025" stroke-width="1.40847" font-family="'Microsoft JhengHei'" font-size="56.3371" font-weight="400" letter-spacing="0" style="line-height:1.25;-inkscape-font-specification:'Microsoft JhengHei, Normal';font-variant-ligatures:normal;font-variant-caps:normal;font-variant-numeric:normal;font-variant-east-asian:normal" transform="scale(-1 1)" word-spacing="0"><tspan x="-664.36456" y="167.32454" style="-inkscape-font-specification:'Microsoft JhengHei, Normal';font-variant-ligatures:normal;font-variant-caps:normal;font-variant-numeric:normal;font-variant-east-asian:normal">&gt;</tspan></text>
</svg>
