<?xml version="1.0" encoding="UTF-8" standalone="no"?>
<svg
   viewBox="0 0 765.99878 358.41443"
   version="1.1"
   id="svg43"
   width="765.99878"
   height="358.41443"
   xmlns:xlink="http://www.w3.org/1999/xlink"
   xmlns="http://www.w3.org/2000/svg"
   xmlns:svg="http://www.w3.org/2000/svg">
  <defs
     id="defs3">
    <path
       id="a"
       d="m 108.42447,143.13931 h -1.23862 v -0.11797 h 0.15729 q 0.0983,0 0.13762,-0.0393 0.0393,-0.0393 0.0393,-0.11796 v -2.81146 q 0,-0.0786 -0.0393,-0.11796 -0.0393,-0.0393 -0.13762,-0.0393 h -0.11797 v -0.11797 h 1.14031 q 0.47186,0 0.68812,0.19661 0.23593,0.17694 0.23593,0.57015 0,0.27525 -0.11796,0.4522 -0.11797,0.17694 -0.49152,0.31457 0.4522,0.13762 0.60948,0.39321 0.15728,0.25558 0.15728,0.57015 0,0.39321 -0.27524,0.62914 -0.27525,0.23593 -0.7471,0.23593 z m -0.41288,-0.11797 h 0.35389 q 0.33423,0 0.51118,-0.1966 0.1966,-0.21627 0.1966,-0.58982 0,-0.43253 -0.1966,-0.62914 -0.19661,-0.21626 -0.58982,-0.21626 h -0.45219 v 1.47454 q 0,0.0786 0.0393,0.11796 0.059,0.0393 0.13762,0.0393 z m 0.7471,-1.92673 q 0.19661,-0.17694 0.19661,-0.5505 0,-0.35388 -0.19661,-0.49151 -0.1966,-0.15728 -0.51117,-0.15728 h -0.23593 q -0.0786,0 -0.13762,0.0393 -0.0393,0.0393 -0.0393,0.11796 v 1.21896 h 0.51117 q 0.21627,0 0.41287,-0.17695 z m 2.18233,0.49151 0.55049,-1.45488 q 0.0197,-0.11796 -0.0393,-0.17694 -0.0393,-0.059 -0.17695,-0.059 h -0.0393 v -0.11797 h 0.76676 v 0.11797 h -0.059 q -0.0983,0 -0.17694,0.0786 -0.0786,0.059 -0.13763,0.1966 l -0.60947,1.55319 v 1.14031 q 0,0.0786 0.0393,0.11796 0.059,0.0393 0.13762,0.0393 h 0.17695 v 0.11797 h -1.02235 v -0.11797 h 0.17694 q 0.0983,0 0.13763,-0.0393 0.0393,-0.0393 0.0393,-0.11796 v -1.02235 l -0.66846,-1.73013 q -0.0393,-0.0983 -0.0983,-0.15728 -0.059,-0.059 -0.15729,-0.059 h -0.0393 v -0.11797 h 0.86507 v 0.11797 h -0.11797 q -0.11796,0 -0.13762,0.059 -0.0197,0.059 0.0197,0.17694 l 0.53083,1.45488 z"
       style="line-height:1.25;-inkscape-font-specification:'SimSun-ExtB, Normal'" />
  </defs>
  <path
     fill="#f9f9f9"
     fill-rule="evenodd"
     stroke="#002255"
     stroke-dashoffset="3.4392"
     stroke-linejoin="round"
     stroke-width="8.86544"
     d="m 600.24338,42.077813 a 134.7665,155.95055 0 0 0 -114.91996,74.677267 31.119147,40.230178 0 0 0 -14.0001,-4.30715 31.119147,40.230178 0 0 0 -31.12091,40.22878 31.119147,40.230178 0 0 0 25.46264,39.53378 134.7665,155.95055 0 0 0 -0.1748,5.81649 134.7665,155.95055 0 0 0 134.7658,155.95472 134.7665,155.95055 0 0 0 134.70842,-154.18797 31.119147,40.230178 0 0 0 26.60159,-39.80335 31.119147,40.230178 0 0 0 -31.1209,-40.22844 31.119147,40.230178 0 0 0 -12.08139,3.17941 134.7665,155.95055 0 0 0 -118.10772,-80.86492 z"
     paint-order="fill markers stroke"
     id="path5" />
  <path
     fill="none"
     stroke="#002255"
     stroke-width="5.5083"
     d="m 576.47999,152.47668 c 4.60976,-6.06069 12.27095,-9.67073 19.8796,-9.3674 6.98456,0.27834 13.7712,3.81737 17.9977,9.38479"
     id="path7" />
  <ellipse
     cx="546.65442"
     cy="151.4514"
     fill="#ffff00"
     fill-rule="evenodd"
     stroke="#002255"
     stroke-dashoffset="3.4392"
     stroke-linejoin="round"
     stroke-width="5.5083"
     paint-order="fill markers stroke"
     rx="29.197594"
     ry="29.892609"
     id="ellipse9" />
  <ellipse
     cx="643.97968"
     cy="151.4514"
     fill="#ffff00"
     fill-rule="evenodd"
     stroke="#002255"
     stroke-dashoffset="3.4392"
     stroke-linejoin="round"
     stroke-width="5.5083"
     paint-order="fill markers stroke"
     rx="29.197594"
     ry="29.892609"
     id="ellipse11" />
  <path
     fill="none"
     stroke="#002255"
     stroke-width="4.02086"
     d="m 590.83422,255.30066 c 12.72667,1.72883 26.04362,-1.30097 36.77149,-8.36245 10.7275,-7.06216 18.77342,-18.09752 22.21647,-30.47109 a 53.888722,53.888722 0 0 0 1.96537,-14.74698"
     id="path13" />
  <path
     fill="none"
     stroke="#002255"
     stroke-dashoffset="0.18"
     stroke-width="1.10166"
     d="m 476.44128,124.68686 c -6.04467,-0.31288 -12.17494,1.87145 -16.68418,5.90902 -5.20358,4.65778 -8.08069,11.50462 -9.03731,18.42242 -0.5704,4.1193 -0.50091,8.39027 0.78966,12.34261 1.29391,3.95268 3.89912,7.56829 7.55194,9.55524 3.31839,1.80538 7.40028,2.15669 10.97901,0.94267 3.57924,-1.21402 6.60333,-3.97564 8.13841,-7.42914 1.53397,-3.45421 1.55852,-7.54882 0.0708,-11.01937 -1.49568,-3.4716 -4.49008,-6.26488 -8.05563,-7.5189 M 726.0361,131.14652 c 6.04467,-0.31288 12.17526,1.87145 16.68454,5.90902 5.20319,4.65779 8.08065,11.50427 9.03728,18.42207 0.5704,4.11931 0.5009,8.39028 -0.78965,12.34296 -1.29392,3.95234 -3.89877,7.56829 -7.55191,9.55524 -3.31838,1.80538 -7.40033,2.15669 -10.97906,0.94268 -3.57923,-1.21402 -6.60333,-3.97564 -8.1384,-7.4295 -1.53397,-3.4542 -1.55848,-7.54846 -0.0708,-11.01902 1.49568,-3.47159 4.49046,-6.26453 8.05564,-7.51889"
     id="path15" />
  <text
     xml:space="preserve"
     x="-2.8983798"
     y="331.84143"
     fill="#ffff00"
     stroke-width="4.37708"
     font-family="SimSun-ExtB"
     font-size="175.079px"
     font-weight="400"
     letter-spacing="0"
     style="line-height:1.25;-inkscape-font-specification:'SimSun-ExtB, Normal';font-variant-ligatures:normal;font-variant-caps:normal;font-variant-numeric:normal;font-variant-east-asian:normal"
     word-spacing="0"
     id="text19"><tspan
       style="-inkscape-font-specification:'SimSun-ExtB, Normal';font-variant-ligatures:normal;font-variant-caps:normal;font-variant-numeric:normal;font-variant-east-asian:normal;stroke-width:4.37708"
       id="tspan17">GEEKS</tspan></text>
  <use
     xlink:href="#a"
     fill="#f9f9f9"
     stroke-width="0.12583"
     aria-label="BY"
     font-family="SimSun-ExtB"
     font-size="5.0331px"
     letter-spacing="0"
     style="line-height:1.25;-inkscape-font-specification:'SimSun-ExtB, Normal'"
     transform="matrix(34.785543,0,0,34.785543,-3462.4642,-4795.6339)"
     word-spacing="0"
     id="use21"
     x="0"
     y="0"
     width="100%"
     height="100%" />
  <text
     xml:space="preserve"
     x="-0.68390232"
     y="185.59631"
     fill="#ffff00"
     stroke-width="4.37708"
     font-family="SimSun-ExtB"
     font-size="175.079px"
     font-weight="400"
     letter-spacing="0"
     style="line-height:1.25;-inkscape-font-specification:'SimSun-ExtB, Normal';font-variant-ligatures:normal;font-variant-caps:normal;font-variant-numeric:normal;font-variant-east-asian:normal"
     word-spacing="0"
     id="text23">ASK</text>
  <text
     xml:space="preserve"
     x="607.77863"
     y="-272.90686"
     fill="#ffff00"
     stroke-width="2.17931"
     font-family="SimSun-ExtB"
     font-size="87.1714px"
     font-weight="400"
     letter-spacing="0"
     style="line-height:1.25;-inkscape-font-specification:'SimSun-ExtB, Normal';font-variant-ligatures:normal;font-variant-caps:normal;font-variant-numeric:normal;font-variant-east-asian:normal"
     transform="rotate(28.192)"
     word-spacing="0"
     id="text29"><tspan
       x="607.77863"
       y="-272.90686"
       style="-inkscape-font-specification:'SimSun-ExtB, Normal';font-variant-ligatures:normal;font-variant-caps:normal;font-variant-numeric:normal;font-variant-east-asian:normal;stroke-width:2.17931"
       id="tspan27">!</tspan></text>
  <text
     xml:space="preserve"
     x="-675.77277"
     y="337.5621"
     fill="#ffff00"
     stroke-width="2.17931"
     font-family="SimSun-ExtB"
     font-size="87.1714px"
     font-weight="400"
     letter-spacing="0"
     style="line-height:1.25;-inkscape-font-specification:'SimSun-ExtB, Normal';font-variant-ligatures:normal;font-variant-caps:normal;font-variant-numeric:normal;font-variant-east-asian:normal"
     transform="rotate(-151.808)"
     word-spacing="0"
     id="text33"><tspan
       x="-675.77277"
       y="337.5621"
       style="-inkscape-font-specification:'SimSun-ExtB, Normal';font-variant-ligatures:normal;font-variant-caps:normal;font-variant-numeric:normal;font-variant-east-asian:normal;stroke-width:2.17931"
       id="tspan31">?</tspan></text>
  <path
     fill="none"
     stroke="#002255"
     stroke-width="1.83494"
     d="m 548.15448,148.29442 c 2.14261,2.64716 1.15824,6.55254 -1.46784,8.46505 -3.49304,2.54632 -8.41467,1.2349 -10.76616,-2.21235 -2.95681,-4.33254 -1.31468,-10.28157 2.95686,-13.06684 5.16842,-3.37071 12.15196,-1.39491 15.36824,3.69942 3.78881,6.00225 1.47824,14.02344 -4.44352,17.66897 -6.83538,4.208 -15.89628,1.56187 -19.97037,-5.18757 -4.62788,-7.66708 -1.64545,-17.77019 5.93194,-22.27144 8.49813,-5.04877 19.64445,-1.72884 24.57254,6.67639 5.36218,9.14512 1.96541,21.09743 -6.94844,26.59111"
     id="path35" />
  <text
     xml:space="preserve"
     x="-664.36456"
     y="167.32454"
     fill="#002255"
     stroke-width="1.40847"
     font-family="'Microsoft JhengHei'"
     font-size="56.3371px"
     font-weight="400"
     letter-spacing="0"
     style="line-height:1.25;-inkscape-font-specification:'Microsoft JhengHei, Normal';font-variant-ligatures:normal;font-variant-caps:normal;font-variant-numeric:normal;font-variant-east-asian:normal"
     transform="scale(-1,1)"
     word-spacing="0"
     id="text39"><tspan
       x="-664.36456"
       y="167.32454"
       style="-inkscape-font-specification:'Microsoft JhengHei, Normal';font-variant-ligatures:normal;font-variant-caps:normal;font-variant-numeric:normal;font-variant-east-asian:normal;stroke-width:1.40847"
       id="tspan37">&gt;</tspan></text>
</svg>
