<?xml version="1.0" encoding="UTF-8" standalone="no"?>
<svg
   version="1.1"
   id="Layer_1"
   x="0"
   y="0"
   width="500"
   height="500"
   xml:space="preserve"
   sodipodi:docname="cdn-caching1.svg"
   inkscape:version="1.2 (dc2aedaf03, 2022-05-15)"
   xmlns:inkscape="http://www.inkscape.org/namespaces/inkscape"
   xmlns:sodipodi="http://sodipodi.sourceforge.net/DTD/sodipodi-0.dtd"
   xmlns="http://www.w3.org/2000/svg"
   xmlns:svg="http://www.w3.org/2000/svg"><defs
     id="defs20"><filter
       inkscape:collect="always"
       style="color-interpolation-filters:sRGB"
       id="filter2357"
       x="-0.011414912"
       y="-0.014518494"
       width="1.0228298"
       height="1.029037"><feGaussianBlur
         inkscape:collect="always"
         stdDeviation="1.9024854"
         id="feGaussianBlur2359" /></filter></defs><sodipodi:namedview
     id="namedview18"
     pagecolor="#ffffff"
     bordercolor="#000000"
     borderopacity="0.25"
     inkscape:showpageshadow="2"
     inkscape:pageopacity="0.0"
     inkscape:pagecheckerboard="0"
     inkscape:deskcolor="#d1d1d1"
     showgrid="false"
     inkscape:zoom="1.3350176"
     inkscape:cx="336.69968"
     inkscape:cy="350.55718"
     inkscape:window-width="2560"
     inkscape:window-height="1520"
     inkscape:window-x="-11"
     inkscape:window-y="35"
     inkscape:window-maximized="1"
     inkscape:current-layer="Layer_1" /><style
     id="style2">.st2{fill:#adadad}</style><path
     d="M445.324 459.175h-390c-19.25 0-35-15.75-35-35v-350c0-19.25 15.75-35 35-35h390c19.25 0 35 15.75 35 35v350c0 19.25-15.75 35-35 35z"
     fill="#d7d7d7"
     id="path4"
     style="fill:#153ab3;fill-opacity:1;stroke:#000000;stroke-opacity:1;stroke-width:3.9;stroke-dasharray:none" /><path
     d="M450.324 119.175v284.058c0 16.739-13.696 30.435-30.435 30.435H80.759c-16.739 0-30.435-13.696-30.435-30.435V119.175"
     fill="#fff"
     id="path6"
     style="fill:#1944d2;fill-opacity:1;filter:url(#filter2357)" /><circle
     class="st2"
     cx="62.981"
     cy="81.832"
     r="12.658"
     id="circle8"
     style="fill:#4ee492;fill-opacity:1;stroke:#000000;stroke-opacity:1;stroke-width:3.9;stroke-dasharray:none" /><circle
     class="st2"
     cx="100.954"
     cy="81.832"
     r="12.658"
     id="circle10"
     style="fill:#4ee492;fill-opacity:1;stroke:#000000;stroke-opacity:1;stroke-width:3.9;stroke-dasharray:none" /><circle
     class="st2"
     cx="141.458"
     cy="81.832"
     r="12.658"
     id="circle12"
     style="fill:#4ee492;fill-opacity:1;stroke:#000000;stroke-opacity:1;stroke-width:3.9;stroke-dasharray:none" /><path
     class="st2"
     d="M287.824 69.175h150c6.904 0 12.5 5.596 12.5 12.5s-5.596 12.5-12.5 12.5h-150c-6.904 0-12.5-5.596-12.5-12.5s5.596-12.5 12.5-12.5z"
     id="path14"
     style="fill:#4ee492;fill-opacity:1;stroke:#000000;stroke-opacity:1;stroke-width:3.9;stroke-dasharray:none" /><path
     id="time-18"
     d="M256.909 162.808c-65.223-.003-118.098 52.869-118.101 118.091S191.677 398.997 256.899 399 374.997 346.131 375 280.909v-.005c-.003-65.22-52.872-118.091-118.091-118.096zm68.887 137.776h-78.732v-88.567h19.684v68.888h59.048v19.679z"
     fill="#1092c6"
     style="fill:#4ee492;fill-opacity:1;stroke:#000000;stroke-opacity:1;stroke-width:3.9;stroke-dasharray:none" /></svg>
