<svg width="21.859mm" height="3.5936mm" version="1.1" viewBox="0 0 21.859 3.5936" xmlns="http://www.w3.org/2000/svg" xmlns:xlink="http://www.w3.org/1999/xlink">
 <defs>
  <filter x="-.0093083" y="-.056326" width="1.0186" height="1.1127" color-interpolation-filters="sRGB">
   <feGaussianBlur stdDeviation="0.035559325"/>
  </filter>
  <linearGradient id="linearGradient17611" x1="122.23" x2="122.1" y1="110.94" y2="110.94" gradientTransform="translate(.0058445 -.0087698)" gradientUnits="userSpaceOnUse">
   <stop stop-color="#fff" offset="0"/>
   <stop stop-color="#fff" stop-opacity="0" offset="1"/>
  </linearGradient>
  <filter id="filter17613" x="-.0061524" y="-.040052" width="1.0123" height="1.0801" color-interpolation-filters="sRGB">
   <feGaussianBlur stdDeviation="0.013278235"/>
  </filter>
 </defs>
 <g transform="translate(-118.91 -108.26)">
  <g transform="matrix(4.1595 0 0 4.1595 -385.25 -352.91)">
   <g transform="translate(-.79343 .36897)"></g>
   <g transform="translate(-.8419 .38487)">
    <path d="m122.08 110.52-2e-3 0.79492c0.32955 0.0103 0.60571-0.14019 0.5957-0.41797-0.0116-0.32246-0.31432-0.38162-0.59375-0.37695zm0.86914 0.0293v2e-3h-8e-3l-0.29492 0.75977h0.16211v-2e-3h8e-3l0.0625-0.16992h0.29688l0.0664 0.17188h0.16797v-2e-3h6e-3l-0.30469-0.75976zm0.54883 0v2e-3h-6e-3v0.75977h0.15235v-2e-3h8e-3v-0.31445h0.0234c0.0353 0 0.0619 2e-3 0.0781 8e-3 0.0163 6e-3 0.0304 0.0157 0.0449 0.0312 0.0145 0.0152 0.0426 0.0541 0.082 0.11328l0.11132 0.16407h0.1836l-2e-3 -2e-3h8e-3l-0.0918-0.14843c-0.0367-0.0592-0.0661-0.0999-0.0879-0.12305-0.0215-0.0232-0.0488-0.0451-0.082-0.0644 0.0366-5e-3 0.0554-0.0256 0.082-0.0391 0.02-0.0101 0.0481-0.0126 0.0625-0.0273 4.1e-4 -4.6e-4 -4.1e-4 -1e-3 0-2e-3 1e-3 -1e-3 5e-3 -5.9e-4 6e-3 -2e-3 0.0336-0.0374 0.0508-0.0835 0.0508-0.14062 0-0.045-0.0111-0.0861-0.0332-0.1211-0.0222-0.035-0.0529-0.0588-0.0899-0.0723-0.0367-0.0139-0.0944-0.0195-0.17578-0.0195zm0.71289 0v2e-3h-6e-3v0.12891h0.22461v0.63086h0.1543v-2e-3h8e-3v-0.6289h0.2168v-4e-3h8e-3v-0.12695zm0.65039 0v2e-3h-8e-3v0.12891h0.22656v0.63086h0.15235v-2e-3h8e-3v-0.6289h0.21875v-4e-3h6e-3v-0.12695zm0.70508 0v2e-3h-8e-3v0.75977h0.15234v-2e-3h8e-3v-0.31445h0.0234c0.0353 0 0.0619 2e-3 0.0781 8e-3 0.0163 6e-3 0.0323 0.0157 0.0469 0.0312 0.0145 0.0152 0.0406 0.0541 0.0801 0.11328l0.11133 0.16407h0.18359l-2e-3 -2e-3h0.01l-0.0937-0.14843c-0.0367-0.0592-0.0661-0.0999-0.0879-0.12305-0.0215-0.0232-0.0488-0.0451-0.082-0.0644 0.064-9e-3 0.11101-0.0321 0.14454-0.0664 4e-4 -4.5e-4 -4.1e-4 -1e-3 0-2e-3 1e-3 -1e-3 5e-3 -5.9e-4 6e-3 -2e-3 0.0336-0.0374 0.0508-0.0835 0.0508-0.14062 0-0.045-0.0111-0.0861-0.0332-0.1211s-0.0508-0.0588-0.0879-0.0723c-0.0367-0.0139-0.0964-0.0195-0.17773-0.0195zm0.76172 0v2e-3h-8e-3v0.75977h0.1543v-2e-3h8e-3v-0.75976zm0.24805 0 2e-3 2e-3h-0.01l0.23632 0.36328-0.26171 0.39649h0.18554l2e-3 -2e-3h4e-3l0.16602-0.25781 0.16601 0.25977h0.18555l-2e-3 -2e-3h8e-3l-0.25977-0.39062 0.23633-0.36914h-0.17773l-2e-3 2e-3h-4e-3l-0.14649 0.23633-0.14843-0.23828zm-2.9238 0.13086h0.11328c0.0623 0 0.0989-5e-5 0.11133 2e-3 0.0249 4e-3 0.0451 0.0153 0.0586 0.0312 0.0139 0.0156 0.0195 0.0349 0.0195 0.0605 0 0.0229-5e-3 0.0414-0.0156 0.0566-0.01 0.0147-0.024 0.0251-0.041 0.0312-0.0198 5e-3 -0.0622 8e-3 -0.13281 8e-3h-0.11328zm2.0664 0h0.11328c0.0623 0 0.0989-5e-5 0.11133 2e-3 0.0249 4e-3 0.0451 0.0153 0.0586 0.0312 0.0139 0.0156 0.0215 0.0349 0.0215 0.0605 0 0.0229-5e-3 0.0414-0.0156 0.0566-0.01 0.0147-0.024 0.0251-0.041 0.0312-0.0193 6e-3 -0.0631 8e-3 -0.13476 8e-3h-0.11328zm-2.6934 0.0566 0.10156 0.27148h-0.20117z" fill="url(#linearGradient17611)" filter="url(#filter17613)" opacity=".814" style="paint-order:normal"/>
   </g>
  </g>
 </g>
</svg>
