<?xml version="1.0" encoding="UTF-8"?>
<svg width="752pt" height="752pt" version="1.1" viewBox="0 0 752 752" xmlns="http://www.w3.org/2000/svg">
 <path d="m558.53 267.64v-9.8672h-20.242v-19.395c-0.007812-6.5391-2.6094-12.809-7.2344-17.43-4.625-4.625-10.895-7.2266-17.434-7.2344h-19.391v-20.242h-9.8672v20.242h-46.777v-20.242h-9.8672v20.242h-46.781v-20.242h-9.8672v20.242h-46.777v-20.242h-9.8672v20.242h-46.777v-20.242h-9.8672v20.242h-19.395c-6.5391 0.007812-12.809 2.6094-17.43 7.2344-4.625 4.6211-7.2266 10.891-7.2344 17.43v19.395h-20.242v9.8672h20.242v46.777h-20.242v9.8672h20.242v46.777h-20.242v9.8672h20.242v46.781h-20.242v9.8672h20.242v46.777h-20.242v9.8672h20.242v19.395-0.003906c0.007812 6.5391 2.6094 12.809 7.2344 17.434 4.6211 4.625 10.891 7.2266 17.43 7.2344h19.395v20.242h9.8672v-20.242h46.777v20.242h9.8672v-20.242h46.777v20.242h9.8672v-20.242h46.781v20.242h9.8672v-20.242h46.781v20.242h9.8672l-0.003907-20.242h19.391c6.5391-0.007812 12.809-2.6094 17.434-7.2344s7.2266-10.895 7.2344-17.434v-19.391h20.242v-9.8672h-20.242v-46.777h20.242v-9.8672h-20.242v-46.781h20.242v-9.8672h-20.242v-46.777h20.242v-9.8672h-20.242v-46.777zm-30.109 245.97c-0.003907 3.9258-1.5664 7.6875-4.3398 10.461s-6.5352 4.3359-10.461 4.3398h-275.23c-3.9219-0.003907-7.6836-1.5664-10.457-4.3398-2.7773-2.7734-4.3359-6.5352-4.3398-10.461v-275.23c0.003906-3.9219 1.5625-7.6836 4.3398-10.457 2.7734-2.7773 6.5352-4.3359 10.457-4.3398h275.23c3.9258 0.003906 7.6875 1.5625 10.461 4.3398 2.7734 2.7734 4.3359 6.5352 4.3398 10.457zm-149.82-148.26h36.754l-46.953 61.402 9.793-39.172c0.36719-1.4766 0.035156-3.0352-0.89844-4.2344-0.93359-1.1953-2.3672-1.8945-3.8867-1.8984h-36.871l43.855-58.473-6.6445 36.562c-0.26172 1.4375 0.12891 2.918 1.0664 4.043 0.9375 1.1211 2.3242 1.7695 3.7852 1.7695zm-2.5977-107.75c-31.398 0-61.512 12.473-83.715 34.68-22.207 22.203-34.68 52.316-34.68 83.715 0 31.402 12.473 61.516 34.68 83.719 22.203 22.203 52.316 34.68 83.715 34.68 31.402 0 61.516-12.477 83.719-34.68s34.68-52.316 34.68-83.719c-0.039063-31.387-12.523-61.48-34.719-83.676-22.195-22.195-52.289-34.684-83.68-34.719zm53.25 105.82-67.504 88.273c-1.4219 1.8594-3.9531 2.4648-6.0586 1.4492-2.1094-1.0156-3.2148-3.3711-2.6445-5.6406l14.047-56.184h-40.418c-1.8711 0-3.5781-1.0547-4.4141-2.7266-0.83594-1.6719-0.65625-3.6719 0.46484-5.168l62.312-83.082c1.375-1.832 3.8242-2.4766 5.9219-1.5625 2.0938 0.91797 3.2891 3.1523 2.8789 5.4023l-9.3281 51.305 40.824 0.003907c1.8789 0 3.5898 1.0625 4.4219 2.7461 0.83203 1.6836 0.63672 3.6914-0.50391 5.1836z"/>
</svg>
