<svg width="5.8263mm" height="2.7261mm" version="1.1" viewBox="0 0 5.8263 2.7261" xmlns="http://www.w3.org/2000/svg" xmlns:xlink="http://www.w3.org/1999/xlink">
 <defs>
  <path id="a" d="m108.42 143.14h-1.2386v-0.11797h0.15729q0.0983 0 0.13762-0.0393 0.0393-0.0393 0.0393-0.11796v-2.8115q0-0.0786-0.0393-0.11796-0.0393-0.0393-0.13762-0.0393h-0.11797v-0.11797h1.1403q0.47186 0 0.68812 0.19661 0.23593 0.17694 0.23593 0.57015 0 0.27525-0.11796 0.4522-0.11797 0.17694-0.49152 0.31457 0.4522 0.13762 0.60948 0.39321 0.15728 0.25558 0.15728 0.57015 0 0.39321-0.27524 0.62914-0.27525 0.23593-0.7471 0.23593zm-0.41288-0.11797h0.35389q0.33423 0 0.51118-0.1966 0.1966-0.21627 0.1966-0.58982 0-0.43253-0.1966-0.62914-0.19661-0.21626-0.58982-0.21626h-0.45219v1.4745q0 0.0786 0.0393 0.11796 0.059 0.0393 0.13762 0.0393zm0.7471-1.9267q0.19661-0.17694 0.19661-0.5505 0-0.35388-0.19661-0.49151-0.1966-0.15728-0.51117-0.15728h-0.23593q-0.0786 0-0.13762 0.0393-0.0393 0.0393-0.0393 0.11796v1.219h0.51117q0.21627 0 0.41287-0.17695zm2.1823 0.49151 0.55049-1.4549q0.0197-0.11796-0.0393-0.17694-0.0393-0.059-0.17695-0.059h-0.0393v-0.11797h0.76676v0.11797h-0.059q-0.0983 0-0.17694 0.0786-0.0786 0.059-0.13763 0.1966l-0.60947 1.5532v1.1403q0 0.0786 0.0393 0.11796 0.059 0.0393 0.13762 0.0393h0.17695v0.11797h-1.0224v-0.11797h0.17694q0.0983 0 0.13763-0.0393 0.0393-0.0393 0.0393-0.11796v-1.0224l-0.66846-1.7301q-0.0393-0.0983-0.0983-0.15728-0.059-0.059-0.15729-0.059h-0.0393v-0.11797h0.86507v0.11797h-0.11797q-0.11796 0-0.13762 0.059-0.0197 0.059 0.0197 0.17694l0.53083 1.4549z"/>
 </defs>
 <g transform="translate(-97.396 -189.29)">
  <g transform="matrix(.26458 0 0 .26458 71.043 152.81)">
   <g stroke="#025">
    <path d="m116.86 139.07a3.8742 4.4832 0 0 0-3.3037 2.1468 0.89459 1.1565 0 0 0-0.40247-0.12382 0.89459 1.1565 0 0 0-0.89465 1.1565 0.89459 1.1565 0 0 0 0.73199 1.1365 3.8742 4.4832 0 0 0-5e-3 0.16721 3.8742 4.4832 0 0 0 3.8742 4.4833 3.8742 4.4832 0 0 0 3.8725-4.4325 0.89459 1.1565 0 0 0 0.76473-1.1442 0.89459 1.1565 0 0 0-0.89465-1.1565 0.89459 1.1565 0 0 0-0.34731 0.0914 3.8742 4.4832 0 0 0-3.3953-2.3247z" fill="#f9f9f9" fill-rule="evenodd" stroke-dashoffset="3.4392" stroke-linejoin="round" stroke-width=".25486" paint-order="fill markers stroke"/>
    <g stroke-width=".15835">
     <path d="m116.17 142.25c0.13252-0.17423 0.35276-0.27801 0.57149-0.26929 0.20079 8e-3 0.39589 0.10974 0.51739 0.26979" fill="none"/>
     <ellipse cx="115.32" cy="142.22" rx=".83936" ry=".85934" fill="#ff0" fill-rule="evenodd" stroke-dashoffset="3.4392" stroke-linejoin="round" paint-order="fill markers stroke"/>
     <ellipse cx="118.11" cy="142.22" rx=".83936" ry=".85934" fill="#ff0" fill-rule="evenodd" stroke-dashoffset="3.4392" stroke-linejoin="round" paint-order="fill markers stroke"/>
    </g>
    <path d="m116.59 145.2c0.36586 0.0497 0.74869-0.0374 1.0571-0.2404 0.30839-0.20302 0.53969-0.52026 0.63867-0.87597 0.0383-0.13779 0.0574-0.28092 0.0565-0.42394" fill="none" stroke-width=".11559"/>
    <path d="m113.3 141.45c-0.17377-9e-3 -0.35 0.0538-0.47963 0.16987-0.14959 0.1339-0.2323 0.33073-0.2598 0.5296-0.0164 0.11842-0.0144 0.2412 0.0227 0.35482 0.0372 0.11363 0.11209 0.21757 0.2171 0.27469 0.0954 0.0519 0.21274 0.062 0.31562 0.0271 0.10289-0.0349 0.18983-0.11429 0.23396-0.21357 0.0441-0.0993 0.0448-0.21701 2e-3 -0.31678-0.043-0.0998-0.12908-0.1801-0.23158-0.21615m7.3548-0.42388c0.17377-9e-3 0.35001 0.0538 0.47964 0.16987 0.14958 0.1339 0.2323 0.33072 0.2598 0.52959 0.0164 0.11842 0.0144 0.2412-0.0227 0.35483-0.0372 0.11362-0.11208 0.21757-0.2171 0.27469-0.0954 0.0519-0.21274 0.062-0.31562 0.0271-0.10289-0.0349-0.18983-0.11429-0.23396-0.21358-0.0441-0.0993-0.0448-0.217-2e-3 -0.31677 0.043-0.0998 0.12909-0.18009 0.23158-0.21615" fill="none" stroke-dashoffset=".18" stroke-width=".031669"/>
   </g>
   <text x="99.517235" y="147.40248" fill="#ffff00" font-family="SimSun-ExtB" font-size="5.0331px" font-weight="400" letter-spacing="0" stroke-width=".12583" word-spacing="0" style="font-variant-caps:normal;font-variant-east-asian:normal;font-variant-ligatures:normal;font-variant-numeric:normal;line-height:1.25" xml:space="preserve"><tspan style="font-variant-caps:normal;font-variant-east-asian:normal;font-variant-ligatures:normal;font-variant-numeric:normal">GEEKS</tspan></text>
   <use transform="translate(.063104)" width="100%" height="100%" fill="#f9f9f9" font-family="SimSun-ExtB" font-size="5.0331px" letter-spacing="0" stroke-width=".12583" word-spacing="0" style="line-height:1.25" aria-label="BY" xlink:href="#a"/>
   <g fill="#ffff00" font-family="SimSun-ExtB" font-weight="400" letter-spacing="0" word-spacing="0">
    <text x="99.580887" y="143.19829" font-size="5.0331px" stroke-width=".12583" style="font-variant-caps:normal;font-variant-east-asian:normal;font-variant-ligatures:normal;font-variant-numeric:normal;line-height:1.25" xml:space="preserve">ASK</text>
    <text transform="rotate(28.192)" x="170.38727" y="66.608627" font-size="2.506px" stroke-width=".062649" style="font-variant-caps:normal;font-variant-east-asian:normal;font-variant-ligatures:normal;font-variant-numeric:normal;line-height:1.25" xml:space="preserve"><tspan x="170.38727" y="66.608627" style="font-variant-caps:normal;font-variant-east-asian:normal;font-variant-ligatures:normal;font-variant-numeric:normal">!</tspan></text>
    <text transform="rotate(208.19)" x="-172.34193" y="-64.749954" font-size="2.506px" stroke-width=".062649" style="font-variant-caps:normal;font-variant-east-asian:normal;font-variant-ligatures:normal;font-variant-numeric:normal;line-height:1.25" xml:space="preserve"><tspan x="-172.34193" y="-64.749954" style="font-variant-caps:normal;font-variant-east-asian:normal;font-variant-ligatures:normal;font-variant-numeric:normal">?</tspan></text>
   </g>
   <path d="m115.36 142.13c0.0616 0.0761 0.0333 0.18837-0.0422 0.24335-0.10042 0.0732-0.2419 0.0355-0.30949-0.0636-0.085-0.12455-0.0378-0.29557 0.0849-0.37564 0.14858-0.0969 0.34934-0.0401 0.4418 0.10635 0.10892 0.17255 0.0425 0.40314-0.12774 0.50794-0.19649 0.12097-0.45698 0.0449-0.5741-0.14913-0.13304-0.22041-0.0473-0.51085 0.17053-0.64025 0.24431-0.14514 0.56473-0.0497 0.7064 0.19193 0.15415 0.26291 0.0565 0.6065-0.19975 0.76443" fill="none" stroke="#025" stroke-width=".052755"/>
   <text transform="scale(-1,1)" x="-118.69942" y="142.67302" fill="#002255" font-family="'Microsoft JhengHei'" font-size="1.6196px" font-weight="400" letter-spacing="0" stroke-width=".040489" word-spacing="0" style="font-variant-caps:normal;font-variant-east-asian:normal;font-variant-ligatures:normal;font-variant-numeric:normal;line-height:1.25" xml:space="preserve"><tspan x="-118.69942" y="142.67302" style="font-variant-caps:normal;font-variant-east-asian:normal;font-variant-ligatures:normal;font-variant-numeric:normal">&gt;</tspan></text>
  </g>
 </g>
</svg>
