<?xml version="1.0" encoding="UTF-8" standalone="no"?>
<!-- Created with Inkscape (http://www.inkscape.org/) -->

<svg
   width="210mm"
   height="297mm"
   viewBox="0 0 210 297"
   version="1.1"
   id="svg5"
   inkscape:version="1.1 (c68e22c387, 2021-05-23)"
   sodipodi:docname="drawingDARTt.svg"
   xmlns:inkscape="http://www.inkscape.org/namespaces/inkscape"
   xmlns:sodipodi="http://sodipodi.sourceforge.net/DTD/sodipodi-0.dtd"
   xmlns:xlink="http://www.w3.org/1999/xlink"
   xmlns="http://www.w3.org/2000/svg"
   xmlns:svg="http://www.w3.org/2000/svg">
  <sodipodi:namedview
     id="namedview7"
     pagecolor="#ffffff"
     bordercolor="#999999"
     borderopacity="1"
     inkscape:pageshadow="0"
     inkscape:pageopacity="0"
     inkscape:pagecheckerboard="0"
     inkscape:document-units="mm"
     showgrid="false"
     inkscape:snap-others="true"
     inkscape:zoom="16"
     inkscape:cx="475.5"
     inkscape:cy="420.71875"
     inkscape:window-width="1920"
     inkscape:window-height="1017"
     inkscape:window-x="-8"
     inkscape:window-y="32"
     inkscape:window-maximized="1"
     inkscape:current-layer="layer1"
     inkscape:snap-grids="true"
     showguides="true"
     inkscape:guide-bbox="true">
    <sodipodi:guide
       position="119.65227,185.3015"
       orientation="0,-1"
       id="guide9418" />
    <sodipodi:guide
       position="118.74869,190.74531"
       orientation="0,-1"
       id="guide9843" />
  </sodipodi:namedview>
  <defs
     id="defs2">
    <linearGradient
       inkscape:collect="always"
       id="linearGradient15408">
      <stop
         style="stop-color:#ffffff;stop-opacity:1"
         offset="0"
         id="stop15404" />
      <stop
         style="stop-color:#ffffff;stop-opacity:0;"
         offset="1"
         id="stop15406" />
    </linearGradient>
    <filter
       style="color-interpolation-filters:sRGB;"
       inkscape:label="Invert"
       id="filter885"
       x="0"
       y="0"
       width="1"
       height="1">
      <feColorMatrix
         type="hueRotate"
         values="180"
         result="color1"
         id="feColorMatrix881" />
      <feColorMatrix
         values="0 -1 0 0 1 -1 0 0 0 1 0 0 -1 0 1 -0.21 -0.72 -0.07 1.78743 0 "
         result="color2"
         id="feColorMatrix883" />
    </filter>
    <filter
       inkscape:collect="always"
       style="color-interpolation-filters:sRGB"
       id="filter11870"
       x="-0.0093082673"
       y="-0.056326029"
       width="1.0186165"
       height="1.1126521">
      <feGaussianBlur
         inkscape:collect="always"
         stdDeviation="0.035559325"
         id="feGaussianBlur11872" />
    </filter>
    <linearGradient
       inkscape:collect="always"
       xlink:href="#linearGradient15408"
       id="linearGradient16658"
       gradientUnits="userSpaceOnUse"
       x1="122.22567"
       y1="110.93761"
       x2="122.10019"
       y2="110.93761"
       gradientTransform="translate(0.00584525,-0.00877042)" />
    <linearGradient
       inkscape:collect="always"
       xlink:href="#linearGradient15408"
       id="linearGradient17611"
       gradientUnits="userSpaceOnUse"
       gradientTransform="translate(0.0058445,-0.00876978)"
       x1="122.22567"
       y1="110.93761"
       x2="122.10019"
       y2="110.93761" />
    <filter
       inkscape:collect="always"
       style="color-interpolation-filters:sRGB"
       id="filter17613"
       x="-0.053540858"
       y="-0.0401222"
       width="1.1070817"
       height="1.0802444">
      <feGaussianBlur
         inkscape:collect="always"
         stdDeviation="0.013278235"
         id="feGaussianBlur17615" />
    </filter>
  </defs>
  <g
     inkscape:label="Layer 1"
     inkscape:groupmode="layer"
     id="layer1"
     style="display:inline">
    <g
       id="g18760"
       transform="translate(0.62838542,-2.2654948)"
       inkscape:export-filename="F:\INKSCAAPE\DARTTRIX HD.png"
       inkscape:export-xdpi="96"
       inkscape:export-ydpi="96"><g
   id="g18543"
   transform="translate(-0.79342577,0.36896972)">
  <g
     aria-label="ARTTRIX"
     transform="matrix(0.50238224,0,0,0.50238224,62.332468,55.207057)"
     id="text2315"
     style="font-weight:bold;font-size:2.11667px;line-height:1.25;font-family:Arial;-inkscape-font-specification:'Arial Bold';opacity:0.820513;fill:#ffffff;fill-rule:evenodd;stroke-width:0.264583;filter:url(#filter11870)">
    <path
       d="m 121.49985,111.70364 h -0.3328 l -0.13229,-0.34416 h -0.60565 l -0.12506,0.34416 h -0.32453 l 0.59015,-1.51515 h 0.32349 z m -0.56328,-0.59944 -0.20877,-0.56224 -0.20464,0.56224 z"
       id="path18555" />
    <path
       d="m 121.66314,111.70364 v -1.51515 h 0.64389 q 0.24288,0 0.35244,0.0413 0.11058,0.0403 0.17673,0.14469 0.0661,0.10439 0.0661,0.23875 0,0.17053 -0.10026,0.28215 -0.10025,0.11059 -0.29972,0.13953 0.0992,0.0579 0.1633,0.12712 0.0651,0.0692 0.17466,0.24598 l 0.18501,0.29559 h -0.36587 l -0.22118,-0.32969 q -0.11782,-0.17674 -0.16123,-0.22221 -0.0434,-0.0465 -0.092,-0.0631 -0.0486,-0.0176 -0.154,-0.0176 h -0.062 v 0.63252 z m 0.30593,-0.87436 h 0.22634 q 0.22014,0 0.27492,-0.0186 0.0548,-0.0186 0.0858,-0.0641 0.031,-0.0455 0.031,-0.11368 0,-0.0765 -0.0413,-0.12299 -0.0403,-0.0475 -0.11472,-0.06 -0.0372,-0.005 -0.22325,-0.005 h -0.23874 z"
       id="path18557" />
    <path
       d="m 123.53177,111.70364 v -1.25884 h -0.44959 v -0.25631 h 1.20406 v 0.25631 h -0.44855 v 1.25884 z"
       id="path18559" />
    <path
       d="m 124.82471,111.70364 v -1.25884 h -0.44958 v -0.25631 h 1.20406 v 0.25631 h -0.44855 v 1.25884 z"
       id="path18561" />
    <path
       d="m 125.77763,111.70364 v -1.51515 h 0.64389 q 0.24288,0 0.35243,0.0413 0.11059,0.0403 0.17673,0.14469 0.0661,0.10439 0.0661,0.23875 0,0.17053 -0.10025,0.28215 -0.10025,0.11059 -0.29973,0.13953 0.0992,0.0579 0.1633,0.12712 0.0651,0.0692 0.17467,0.24598 l 0.185,0.29559 h -0.36587 l -0.22118,-0.32969 q -0.11782,-0.17674 -0.16123,-0.22221 -0.0434,-0.0465 -0.092,-0.0631 -0.0486,-0.0176 -0.154,-0.0176 h -0.062 v 0.63252 z m 0.30592,-0.87436 h 0.22635 q 0.22014,0 0.27491,-0.0186 0.0548,-0.0186 0.0858,-0.0641 0.031,-0.0455 0.031,-0.11368 0,-0.0765 -0.0413,-0.12299 -0.0403,-0.0475 -0.11472,-0.06 -0.0372,-0.005 -0.22324,-0.005 h -0.23875 z"
       id="path18563" />
    <path
       d="m 127.29588,111.70364 v -1.51515 h 0.30593 v 1.51515 z"
       id="path18565" />
    <path
       d="m 127.73927,111.70364 0.5178,-0.79065 -0.46923,-0.7245 h 0.3576 l 0.30386,0.48679 0.29766,-0.48679 h 0.3545 l -0.47129,0.73587 0.5178,0.77928 H 128.779 l -0.3359,-0.524 -0.33693,0.524 z"
       id="path18567" />
  </g>
  <g
     aria-label="ARTTRIX"
     id="text11784"
     style="font-weight:bold;font-size:1.06338px;line-height:1.25;font-family:Arial;-inkscape-font-specification:'Arial Bold';fill:#ffffff;fill-rule:evenodd;stroke-width:0.132922">
    <path
       d="m 123.36478,111.32719 h -0.16719 l -0.0665,-0.17291 h -0.30427 l -0.0628,0.17291 H 122.601 l 0.29648,-0.76119 H 123.06 Z m -0.28298,-0.30116 -0.10488,-0.28246 -0.10281,0.28246 z"
       id="path18570" />
    <path
       d="M 123.44682,111.32719 V 110.566 h 0.32348 q 0.12202,0 0.17706,0.0208 0.0555,0.0203 0.0888,0.0727 0.0332,0.0524 0.0332,0.11994 0,0.0857 -0.0504,0.14175 -0.0504,0.0556 -0.15058,0.0701 0.0498,0.0291 0.082,0.0639 0.0327,0.0348 0.0877,0.12358 l 0.0929,0.1485 h -0.1838 l -0.11112,-0.16564 q -0.0592,-0.0888 -0.081,-0.11163 -0.0218,-0.0234 -0.0462,-0.0317 -0.0244,-0.009 -0.0774,-0.009 h -0.0312 v 0.31777 z m 0.15369,-0.43927 h 0.11371 q 0.1106,0 0.13812,-0.009 0.0275,-0.009 0.0431,-0.0322 0.0156,-0.0228 0.0156,-0.0571 0,-0.0384 -0.0208,-0.0618 -0.0203,-0.0239 -0.0576,-0.0301 -0.0187,-0.003 -0.11216,-0.003 h -0.11994 z"
       id="path18572" />
    <path
       d="m 124.38559,111.32719 v -0.63242 h -0.22587 V 110.566 h 0.6049 v 0.12877 h -0.22534 v 0.63242 z"
       id="path18574" />
    <path
       d="m 125.03514,111.32719 v -0.63242 h -0.22586 V 110.566 h 0.6049 v 0.12877 h -0.22535 v 0.63242 z"
       id="path18576" />
    <path
       d="M 125.51387,111.32719 V 110.566 h 0.32348 q 0.12202,0 0.17706,0.0208 0.0555,0.0203 0.0888,0.0727 0.0332,0.0524 0.0332,0.11994 0,0.0857 -0.0504,0.14175 -0.0504,0.0556 -0.15058,0.0701 0.0499,0.0291 0.082,0.0639 0.0327,0.0348 0.0877,0.12358 l 0.0929,0.1485 h -0.1838 l -0.11112,-0.16564 q -0.0592,-0.0888 -0.081,-0.11163 -0.0218,-0.0234 -0.0462,-0.0317 -0.0244,-0.009 -0.0774,-0.009 h -0.0312 v 0.31777 z m 0.15369,-0.43927 h 0.11371 q 0.1106,0 0.13812,-0.009 0.0275,-0.009 0.0431,-0.0322 0.0156,-0.0228 0.0156,-0.0571 0,-0.0384 -0.0208,-0.0618 -0.0203,-0.0239 -0.0576,-0.0301 -0.0187,-0.003 -0.11216,-0.003 h -0.11994 z"
       id="path18578" />
    <path
       d="M 126.27662,111.32719 V 110.566 h 0.15369 v 0.76119 z"
       id="path18580" />
    <path
       d="m 126.49937,111.32719 0.26013,-0.39721 -0.23573,-0.36398 h 0.17965 l 0.15266,0.24455 0.14953,-0.24455 h 0.1781 l -0.23677,0.36969 0.26013,0.3915 h -0.18536 l -0.16875,-0.26325 -0.16927,0.26325 z"
       id="path18582" />
  </g>
</g>
<g
   id="g18195"
   transform="translate(-0.84189901,0.38487049)">
  <path
     style="fill:url(#linearGradient16658);fill-opacity:1;stroke:none;stroke-width:0.0482637;stroke-linecap:butt;stroke-linejoin:miter;stroke-miterlimit:4;stroke-dasharray:none;stroke-opacity:1;paint-order:normal"
     d="m 122.08322,110.52011 -10e-4,0.79352 c 0.32955,0.0103 0.60495,-0.13902 0.59494,-0.4168 -0.0116,-0.32246 -0.31389,-0.38139 -0.59332,-0.37672 z"
     id="path11786"
     sodipodi:nodetypes="ccscc" />
  <path
     style="opacity:0.814;fill:url(#linearGradient17611);fill-opacity:1;stroke:none;stroke-width:0.0482637;stroke-linecap:butt;stroke-linejoin:miter;stroke-miterlimit:4;stroke-dasharray:none;stroke-opacity:1;paint-order:normal;filter:url(#filter17613)"
     d="m 122.08322,110.52011 -10e-4,0.79352 c 0.32955,0.0103 0.60495,-0.13902 0.59494,-0.4168 -0.0116,-0.32246 -0.31389,-0.38139 -0.59332,-0.37672 z"
     id="path17609"
     sodipodi:nodetypes="ccscc" />
</g>
</g>
  </g>
</svg>
