<svg xmlns:xlink="http://www.w3.org/1999/xlink" xmlns="http://www.w3.org/2000/svg" viewBox="121.87 108.64 5.18 0.79"><defs><linearGradient id="a"><stop style="stop-color:#fff;stop-opacity:1" offset="0"/><stop style="stop-color:#fff;stop-opacity:0" offset="1"/></linearGradient><linearGradient xlink:href="#a" id="c" gradientUnits="userSpaceOnUse" x1="122.226" y1="110.938" x2="122.1" y2="110.938" gradientTransform="translate(.006 -.009)"/><linearGradient xlink:href="#a" id="d" gradientUnits="userSpaceOnUse" gradientTransform="translate(.006 -.009)" x1="122.226" y1="110.938" x2="122.1" y2="110.938"/><filter style="color-interpolation-filters:sRGB" id="b" x="-.009" y="-.056" width="1.019" height="1.113"><feGaussianBlur stdDeviation=".036"/></filter></defs><g style="display:inline"><g aria-label="ARTTRIX" transform="translate(62.167 53.31) scale(.50238)" style="font-weight:700;font-size:2.11667px;line-height:1.25;font-family:Arial;-inkscape-font-specification:'Arial Bold';opacity:.820513;fill:#fff;fill-rule:evenodd;stroke-width:.264583;filter:url(#b)"><path d="M121.5 111.704h-.333l-.132-.345h-.606l-.125.345h-.324l.59-1.516h.323zm-.563-.6-.21-.562-.204.562zM121.663 111.704v-1.516h.644q.243 0 .352.042.111.04.177.144.066.105.066.24 0 .17-.1.281-.1.111-.3.14.1.058.164.127.065.07.174.246l.185.296h-.366l-.22-.33q-.119-.177-.162-.222-.043-.047-.092-.063-.049-.018-.154-.018h-.062v.633zm.306-.875h.226q.22 0 .275-.018.055-.019.086-.064.031-.046.031-.114 0-.077-.041-.123-.04-.048-.115-.06-.037-.005-.223-.005h-.239zM123.532 111.704v-1.26h-.45v-.256h1.204v.257h-.448v1.259zM124.825 111.704v-1.26h-.45v-.256h1.204v.257h-.448v1.259zM125.778 111.704v-1.516h.644q.242 0 .352.042.11.04.177.144.066.105.066.24 0 .17-.1.281-.1.111-.3.14.099.058.163.127.065.07.175.246l.185.296h-.366l-.221-.33q-.118-.177-.162-.222-.043-.047-.092-.063-.048-.018-.154-.018h-.062v.633zm.306-.875h.226q.22 0 .275-.018.055-.019.086-.064.03-.046.03-.114 0-.077-.04-.123-.041-.048-.115-.06-.038-.005-.224-.005h-.238zM127.296 111.704v-1.516h.306v1.516zM127.74 111.704l.517-.791-.47-.725h.358l.304.487.298-.487h.354l-.47.736.517.78h-.369l-.336-.524-.337.524z"/></g><g aria-label="ARTTRIX" style="font-weight:700;font-size:1.06338px;line-height:1.25;font-family:Arial;-inkscape-font-specification:'Arial Bold';fill:#fff;fill-rule:evenodd;stroke-width:.132922"><path d="M123.2 109.43h-.167l-.067-.172h-.304l-.063.173h-.163l.296-.762h.163zm-.283-.3-.105-.283-.103.283zM123.282 109.43v-.76h.323q.122 0 .177.02.056.02.09.073.032.052.032.12 0 .086-.05.142-.05.055-.15.07.05.029.081.064.033.034.088.123l.093.149h-.184l-.111-.166q-.06-.089-.081-.112-.022-.023-.046-.031-.025-.01-.078-.01h-.03v.319zm.153-.439h.114q.11 0 .138-.009.028-.009.043-.032.016-.023.016-.057 0-.038-.02-.062-.021-.024-.058-.03-.02-.003-.113-.003h-.12zM124.22 109.43v-.632h-.225v-.129h.605v.13h-.226v.632zM124.87 109.43v-.632h-.226v-.129h.605v.13h-.225v.632zM125.349 109.43v-.76h.323q.122 0 .177.02.056.02.09.073.032.052.032.12 0 .086-.05.142-.05.055-.15.07.05.029.081.064.033.034.088.123l.093.149h-.184l-.11-.166q-.06-.089-.082-.112-.022-.023-.046-.031-.025-.01-.078-.01h-.03v.319zm.154-.439h.113q.11 0 .138-.009.028-.009.043-.032.016-.023.016-.057 0-.038-.02-.062-.021-.024-.058-.03-.02-.003-.113-.003h-.12zM126.112 109.43v-.76h.153v.76zM126.334 109.43l.26-.397-.235-.364h.18l.152.245.15-.245h.178l-.237.37.26.392h-.185l-.17-.264-.168.264z"/></g><g><path style="fill:url(#c);fill-opacity:1;stroke:none;stroke-width:.0482637;stroke-linecap:butt;stroke-linejoin:miter;stroke-miterlimit:4;stroke-dasharray:none;stroke-opacity:1;paint-order:normal" d="M122.083 110.52v.794c.329.01.604-.14.594-.417-.011-.323-.314-.382-.593-.377z" transform="translate(-.214 -1.88)"/><path style="opacity:.814;fill:url(#d);fill-opacity:1;stroke:none;stroke-width:.0482637;stroke-linecap:butt;stroke-linejoin:miter;stroke-miterlimit:4;stroke-dasharray:none;stroke-opacity:1;paint-order:normal;filter:url(#filter17613)" d="M122.083 110.52v.794c.329.01.604-.14.594-.417-.011-.323-.314-.382-.593-.377z" transform="translate(-.214 -1.88)"/></g></g></svg>