<svg width="766" height="358.41" version="1.1" viewBox="0 0 766 358.41" xmlns="http://www.w3.org/2000/svg">
 <g stroke="#025">
  <path d="m600.24 42.078a134.77 155.95 0 0 0-114.92 74.677 31.119 40.23 0 0 0-14-4.3072 31.119 40.23 0 0 0-31.121 40.229 31.119 40.23 0 0 0 25.463 39.534 134.77 155.95 0 0 0-0.1748 5.8165 134.77 155.95 0 0 0 134.77 155.95 134.77 155.95 0 0 0 134.71-154.19 31.119 40.23 0 0 0 26.602-39.803 31.119 40.23 0 0 0-31.121-40.228 31.119 40.23 0 0 0-12.081 3.1794 134.77 155.95 0 0 0-118.11-80.865z" fill="#f9f9f9" fill-rule="evenodd" stroke-dashoffset="3.4392" stroke-linejoin="round" stroke-width="8.8654" paint-order="fill markers stroke"/>
  <g stroke-width="5.5083">
   <path d="m576.48 152.48c4.6098-6.0607 12.271-9.6707 19.88-9.3674 6.9846 0.27834 13.771 3.8174 17.998 9.3848" fill="none"/>
   <ellipse cx="546.65" cy="151.45" rx="29.198" ry="29.893" fill="#ff0" fill-rule="evenodd" stroke-dashoffset="3.4392" stroke-linejoin="round" paint-order="fill markers stroke"/>
   <ellipse cx="643.98" cy="151.45" rx="29.198" ry="29.893" fill="#ff0" fill-rule="evenodd" stroke-dashoffset="3.4392" stroke-linejoin="round" paint-order="fill markers stroke"/>
  </g>
  <path d="m590.83 255.3c12.727 1.7288 26.044-1.301 36.771-8.3624 10.728-7.0622 18.773-18.098 22.216-30.471a53.889 53.889 0 0 0 1.9654-14.747" fill="none" stroke-width="4.0209"/>
  <path d="m476.44 124.69c-6.0447-0.31288-12.175 1.8714-16.684 5.909-5.2036 4.6578-8.0807 11.505-9.0373 18.422-0.5704 4.1193-0.50091 8.3903 0.78966 12.343 1.2939 3.9527 3.8991 7.5683 7.5519 9.5552 3.3184 1.8054 7.4003 2.1567 10.979 0.94267 3.5792-1.214 6.6033-3.9756 8.1384-7.4291 1.534-3.4542 1.5585-7.5488 0.0708-11.019-1.4957-3.4716-4.4901-6.2649-8.0556-7.5189m255.84-14.745c6.0447-0.31288 12.175 1.8714 16.685 5.909 5.2032 4.6578 8.0806 11.504 9.0373 18.422 0.5704 4.1193 0.5009 8.3903-0.78965 12.343-1.2939 3.9523-3.8988 7.5683-7.5519 9.5552-3.3184 1.8054-7.4003 2.1567-10.979 0.94268-3.5792-1.214-6.6033-3.9756-8.1384-7.4295-1.534-3.4542-1.5585-7.5485-0.0708-11.019 1.4957-3.4716 4.4905-6.2645 8.0556-7.5189" fill="none" stroke-dashoffset=".18" stroke-width="1.1017"/>
 </g>
 <g fill="#ff0" stroke-width="4.3771" aria-label="GEEKS">
  <path d="m55.917 221.73q-6.1551-6.839-15.046-6.839-10.259 0-19.149 14.362-8.2068 13.678-8.2068 42.402 0 19.149 6.1551 36.247 6.839 17.098 21.885 17.098 7.5229 0 11.626-2.7356 4.7873-3.4195 5.4712-9.5746v-23.253q0-4.1034-2.0517-6.1551-2.0517-2.0517-6.1551-2.0517h-4.1034v-4.1034h34.195v4.1034h-3.4195q-3.4195 0-5.4712 2.0517-2.0517 2.0517-2.0517 5.4712v34.195q-1.3678-0.6839-2.7356-0.6839-0.6839-0.6839-2.0517-0.6839-1.3678 0-2.7356 0.6839-1.3678 0-2.7356 1.3678-4.1034 3.4195-8.8907 4.7873-4.1034 1.3678-9.5746 1.3678-20.517 0-30.092-17.781-9.5746-18.465-9.5746-40.35 0-25.304 10.942-43.086 11.626-18.465 28.724-18.465 4.1034 0 9.5746 2.0517 5.4712 2.0517 6.839 2.0517 2.0517 0 4.1034-0.6839 2.0517-1.3678 3.4195-3.4195l5.4712 30.776-4.1034 1.3678q-4.1034-14.362-10.259-20.517z"/>
  <path d="m92.848 215.58h-3.4195v-4.1034h67.022l7.5229 23.253-3.4195 1.3678q-5.4712-10.259-11.626-15.046-6.1551-5.4712-13.678-5.4712h-19.149q-2.7356 0-4.7873 1.3678-1.3678 1.3678-1.3678 4.1034v42.402h19.833q6.839 0 9.5746-3.4195 3.4195-3.4195 3.4195-10.259v-4.1034h4.1034v40.35h-4.1034v-2.7356q0-7.5229-3.4195-11.626-2.7356-4.1034-9.5746-4.1034h-19.833v51.293q0 2.7356 1.3678 4.1034 2.0517 1.3678 4.7873 1.3678h17.781q10.259 0 17.098-5.4712 7.5229-6.1551 11.626-18.465l3.4195 1.3678-7.5229 26.672h-69.758v-4.1034h4.1034q3.4195 0 4.7873-1.3678 1.3678-1.3678 1.3678-4.1034v-97.798q0-2.7356-1.3678-4.1034-1.3678-1.3678-4.7873-1.3678z"/>
  <path d="m180.39 215.58h-3.4195v-4.1034h67.022l7.5229 23.253-3.4195 1.3678q-5.4712-10.259-11.626-15.046-6.1551-5.4712-13.678-5.4712h-19.149q-2.7356 0-4.7873 1.3678-1.3678 1.3678-1.3678 4.1034v42.402h19.833q6.839 0 9.5746-3.4195 3.4195-3.4195 3.4195-10.259v-4.1034h4.1034v40.35h-4.1034v-2.7356q0-7.5229-3.4195-11.626-2.7356-4.1034-9.5746-4.1034h-19.833v51.293q0 2.7356 1.3678 4.1034 2.0517 1.3678 4.7873 1.3678h17.781q10.259 0 17.098-5.4712 7.5229-6.1551 11.626-18.465l3.4195 1.3678-7.5229 26.672h-69.758v-4.1034h4.1034q3.4195 0 4.7873-1.3678 1.3678-1.3678 1.3678-4.1034v-97.798q0-2.7356-1.3678-4.1034-1.3678-1.3678-4.7873-1.3678z"/>
  <path d="m343.16 324.32v4.1034h-29.408v-4.1034h2.0517q4.1034 0 4.7873-2.7356 0.6839-2.7356-2.0517-7.5229l-23.253-49.925-10.942 15.73v38.982q0 2.7356 1.3678 4.1034 2.0517 1.3678 4.7873 1.3678h4.1034v4.1034h-31.46v-4.1034h4.1034q3.4195 0 4.7873-1.3678 1.3678-1.3678 1.3678-4.1034v-97.798q0-2.7356-1.3678-4.1034-1.3678-1.3678-4.7873-1.3678h-4.1034v-4.1034h31.46v4.1034h-4.1034q-2.7356 0-4.7873 1.3678-1.3678 1.3678-1.3678 4.1034v49.925l32.143-45.821q3.4195-4.7873 2.0517-6.839-1.3678-2.7356-6.1551-2.7356h-2.7356v-4.1034h29.408v4.1034h-1.3678q-3.4195 0-6.839 2.0517-3.4195 2.0517-6.839 6.1551l-21.885 30.092 29.408 62.919q2.0517 4.1034 4.1034 6.1551 2.7356 1.3678 4.1034 1.3678z"/>
  <path d="m407.44 285.34q-6.1551-6.839-19.833-12.994-18.465-8.2068-25.304-14.362t-6.839-19.149q0-10.259 8.2068-19.149 8.8907-9.5746 24.62-9.5746 6.839 0 12.994 2.7356 6.1551 2.0517 8.8907 2.0517 2.0517 0 3.4195-0.6839 2.0517-1.3678 3.4195-4.1034l2.7356 28.04-3.4195 1.3678q-6.1551-14.362-12.994-19.149-6.1551-5.4712-16.414-5.4712-12.994 0-17.781 7.5229-4.7873 6.839-4.7873 15.046 0 7.5229 4.1034 12.31 4.7873 4.1034 24.62 12.994 16.414 6.839 23.253 15.73 7.5229 8.2068 7.5229 19.833 0 12.31-8.8907 21.885-8.2068 9.5746-24.62 9.5746-6.839 0-12.994-2.0517-5.4712-2.7356-8.8907-2.7356-2.0517 0-4.1034 1.3678-2.0517 1.3678-4.7873 3.4195l-5.4712-33.511 4.1034-1.3678q4.7873 17.098 12.994 23.937 8.8907 6.1551 19.833 6.1551 11.626 0 17.098-6.839 6.1551-6.839 6.1551-19.833 0-6.839-6.839-12.994z"/>
 </g>
 <path d="m309.14 183.54h-43.086v-4.1036h5.4714q3.4194 0 4.7872-1.3671 1.3671-1.3671 1.3671-4.1033v-97.798q0-2.7341-1.3671-4.1033-1.3671-1.3671-4.7872-1.3671h-4.1036v-4.1037h39.666q16.414 0 23.937 6.8392 8.207 6.155 8.207 19.833 0 9.5747-4.1033 15.73-4.1036 6.155-17.098 10.942 15.73 4.7872 21.201 13.678 5.4711 8.8905 5.4711 19.833 0 13.678-9.5744 21.885-9.5747 8.207-25.988 8.207zm-14.362-4.1036h12.31q11.626 0 17.782-6.8388 6.8388-7.5231 6.8388-20.517 0-15.046-6.8388-21.885-6.8392-7.5227-20.517-7.5227h-15.73v51.293q0 2.7341 1.3671 4.1033 2.0523 1.3671 4.7872 1.3671zm25.988-67.022q6.8392-6.155 6.8392-19.149 0-12.31-6.8392-17.097-6.8388-5.4711-17.781-5.4711h-8.207q-2.7342 0-4.7872 1.3671-1.3671 1.3671-1.3671 4.1033v42.402h17.781q7.5231 0 14.362-6.1553zm75.914 17.097 19.149-50.609q0.68527-4.1033-1.3671-6.155-1.3671-2.0523-6.1553-2.0523h-1.3671v-4.1037h26.672v4.1037h-2.0523q-3.4194 0-6.155 2.7341-2.7341 2.0523-4.7875 6.8388l-21.201 54.029v39.666q0 2.7342 1.3671 4.1033 2.0524 1.3671 4.7872 1.3671h6.1553v4.1036h-35.563v-4.1036h6.155q3.4194 0 4.7875-1.3671 1.3671-1.3671 1.3671-4.1033v-35.563l-23.253-60.184q-1.3671-3.4194-3.4194-5.4711-2.0524-2.0523-5.4714-2.0523h-1.3671v-4.1037h30.092v4.1037h-4.1036q-4.1033 0-4.7872 2.0523-0.68527 2.0523 0.68528 6.155l18.465 50.609z" fill="#f9f9f9" stroke-width="4.3771"/>
 <g fill="#ff0" stroke-width="4.3771" aria-label="ASK">
  <path d="m60.867 168.5-6.839-30.092h-30.776l-6.1551 25.988q-1.3678 6.1551 0 10.259 1.3678 3.4195 6.1551 3.4195h2.0517v4.1034h-25.304v-4.1034h2.0517q2.7356 0 4.7873-1.3678 2.0517-2.0517 2.7356-6.1551l26.672-104.64 10.259-3.4195 25.988 108.06q1.3678 4.1034 3.4195 6.1551 2.0517 1.3678 4.7873 1.3678h2.0517v4.1034h-29.408v-4.1034h2.7356q4.1034 0 4.7873-2.0517 1.3678-2.7356 0-7.5229zm-7.5229-34.195-13.678-56.764h-0.6839l-14.362 56.764z"/>
  <path d="m147.04 139.09q-6.1551-6.839-19.833-12.994-18.465-8.2068-25.304-14.362-6.839-6.1551-6.839-19.149 0-10.259 8.2068-19.149 8.8907-9.5746 24.62-9.5746 6.839 0 12.994 2.7356 6.1551 2.0517 8.8907 2.0517 2.0517 0 3.4195-0.6839 2.0517-1.3678 3.4195-4.1034l2.7356 28.04-3.4195 1.3678q-6.1551-14.362-12.994-19.149-6.1551-5.4712-16.414-5.4712-12.994 0-17.781 7.5229-4.7873 6.839-4.7873 15.046 0 7.5229 4.1034 12.31 4.7873 4.1034 24.62 12.994 16.414 6.839 23.253 15.73 7.5229 8.2068 7.5229 19.833 0 12.31-8.8907 21.885-8.2068 9.5746-24.62 9.5746-6.839 0-12.994-2.0517-5.4712-2.7356-8.8907-2.7356-2.0517 0-4.1034 1.3678-2.0517 1.3678-4.7873 3.4195l-5.4712-33.511 4.1034-1.3678q4.7873 17.098 12.994 23.937 8.8907 6.1551 19.833 6.1551 11.626 0 17.098-6.839 6.1551-6.839 6.1551-19.833 0-6.839-6.839-12.994z"/>
  <path d="m257.83 178.07v4.1034h-29.408v-4.1034h2.0517q4.1034 0 4.7873-2.7356t-2.0517-7.5229l-23.253-49.925-10.942 15.73v38.982q0 2.7356 1.3678 4.1034 2.0517 1.3678 4.7873 1.3678h4.1034v4.1034h-31.46v-4.1034h4.1034q3.4195 0 4.7873-1.3678 1.3678-1.3678 1.3678-4.1034v-97.798q0-2.7356-1.3678-4.1034-1.3678-1.3678-4.7873-1.3678h-4.1034v-4.1034h31.46v4.1034h-4.1034q-2.7356 0-4.7873 1.3678-1.3678 1.3678-1.3678 4.1034v49.925l32.143-45.821q3.4195-4.7873 2.0517-6.839-1.3678-2.7356-6.1551-2.7356h-2.7356v-4.1034h29.408v4.1034h-1.3678q-3.4195 0-6.839 2.0517-3.4195 2.0517-6.839 6.1551l-21.885 30.092 29.408 62.919q2.0517 4.1034 4.1034 6.1551 2.7356 1.3678 4.1034 1.3678z"/>
 </g>
 <text transform="rotate(28.192)" x="607.77863" y="-272.90686" fill="#ffff00" font-family="SimSun-ExtB" font-size="87.171px" font-weight="400" letter-spacing="0" stroke-width="2.1793" word-spacing="0" style="font-variant-caps:normal;font-variant-east-asian:normal;font-variant-ligatures:normal;font-variant-numeric:normal;line-height:1.25" xml:space="preserve"><tspan x="607.77863" y="-272.90686" stroke-width="2.1793" style="font-variant-caps:normal;font-variant-east-asian:normal;font-variant-ligatures:normal;font-variant-numeric:normal">!</tspan></text>
 <text transform="rotate(208.19)" x="-675.77277" y="337.5621" fill="#ffff00" font-family="SimSun-ExtB" font-size="87.171px" font-weight="400" letter-spacing="0" stroke-width="2.1793" word-spacing="0" style="font-variant-caps:normal;font-variant-east-asian:normal;font-variant-ligatures:normal;font-variant-numeric:normal;line-height:1.25" xml:space="preserve"><tspan x="-675.77277" y="337.5621" stroke-width="2.1793" style="font-variant-caps:normal;font-variant-east-asian:normal;font-variant-ligatures:normal;font-variant-numeric:normal">?</tspan></text>
 <path d="m548.15 148.29c2.1426 2.6472 1.1582 6.5525-1.4678 8.465-3.493 2.5463-8.4147 1.2349-10.766-2.2124-2.9568-4.3325-1.3147-10.282 2.9569-13.067 5.1684-3.3707 12.152-1.3949 15.368 3.6994 3.7888 6.0022 1.4782 14.023-4.4435 17.669-6.8354 4.208-15.896 1.5619-19.97-5.1876-4.6279-7.6671-1.6454-17.77 5.9319-22.271 8.4981-5.0488 19.644-1.7288 24.573 6.6764 5.3622 9.1451 1.9654 21.097-6.9484 26.591" fill="none" stroke="#025" stroke-width="1.8349"/>
 <text transform="scale(-1,1)" x="-664.36456" y="167.32454" fill="#002255" font-family="'Microsoft JhengHei'" font-size="56.337px" font-weight="400" letter-spacing="0" stroke-width="1.4085" word-spacing="0" style="font-variant-caps:normal;font-variant-east-asian:normal;font-variant-ligatures:normal;font-variant-numeric:normal;line-height:1.25" xml:space="preserve"><tspan x="-664.36456" y="167.32454" stroke-width="1.4085" style="font-variant-caps:normal;font-variant-east-asian:normal;font-variant-ligatures:normal;font-variant-numeric:normal">&gt;</tspan></text>
</svg>
