<?xml version="1.0" encoding="UTF-8" standalone="no"?>
<!--?xml version="1.0" standalone="no"?-->

<!-- Generator: Gravit.io -->

<svg
   id="character"
   viewBox="0 0 40 40"
   width="40"
   height="40"
   preserveAspectRatio="xMidYMin"
   version="1.1"
   xmlns="http://www.w3.org/2000/svg"
   xmlns:svg="http://www.w3.org/2000/svg">
  <defs
     id="defs76" />
  <g
     id="body"
     transform="matrix(0.12697658,0,0,0.12697658,-12.401088,-3.3262762)">
    <g
       id="arms">
      <path
         d="m 352.657,274.503 h 0.127 c 15.913,0 28.832,12.919 28.832,28.832 V 655.62 c 0,15.912 -12.919,28.831 -28.832,28.831 h -0.127 c -15.913,0 -28.832,-12.919 -28.832,-28.831 V 303.335 c 0,-15.913 12.919,-28.832 28.832,-28.832 z m -189.624,0 h 0.127 c 15.913,0 28.832,12.919 28.832,28.832 V 655.62 c 0,15.912 -12.919,28.831 -28.832,28.831 h -0.127 c -15.912,0 -28.831,-12.919 -28.831,-28.831 V 303.335 c 0,-15.913 12.919,-28.832 28.831,-28.832 z"
         fill-rule="evenodd"
         fill="#fcc297"
         id="path2" />
    </g>
    <g
       id="shirt">
      <path
         d="m 334.315,281.125 c 4.973,-4.142 11.37,-6.622 18.342,-6.622 h 0.127 c 15.913,0 28.832,12.919 28.832,28.832 V 398 h -30.701 v 93.216 H 164.903 V 398 h -30.701 v -94.665 c 0,-15.913 12.919,-28.832 28.831,-28.832 h 0.127 c 6.972,0 13.369,2.48 18.342,6.622 8.553,-7.495 19.754,-12.04 32.009,-12.04 h 88.795 c 12.255,0 23.456,4.545 32.009,12.04 z"
         fill="rgb(244,0,75)"
         id="path5"
         style="fill:#000000" />
    </g>
    <g
       id="pants">
      <path
         d="M 237.14,912 H 164.903 V 491.216 H 350.915 V 912 H 276.871 V 567.065 H 237.14 Z"
         fill="#0d2d3c"
         id="path8" />
    </g>
  </g>
  <g
     id="shoes"
     transform="matrix(0.12697658,0,0,0.12697658,-12.110426,-3.3262762)">
    <path
       d="m 390.645,912 c 0,-22.925 -20.635,-41.537 -46.051,-41.537 -25.417,0 -46.052,18.612 -46.052,41.537 z m -173.37,0 c 0,-22.925 -20.635,-41.537 -46.052,-41.537 -25.416,0 -46.051,18.612 -46.051,41.537 z"
       fill-rule="evenodd"
       fill="#f4004b"
       id="path12" />
  </g>
  <g
     id="head"
     transform="matrix(0.12697658,0,0,0.12697658,-12.401088,-3.3262762)">
    <g
       id="ears">
      <path
         d="m 309.02,176.383 c 0,-9.986 8.107,-18.093 18.092,-18.093 9.986,0 18.093,8.107 18.093,18.093 0,9.985 -8.107,18.092 -18.093,18.092 -9.985,0 -18.092,-8.107 -18.092,-18.092 z m -138.408,0 c 0,-9.986 8.107,-18.093 18.093,-18.093 9.985,0 18.092,8.107 18.092,18.093 0,9.985 -8.107,18.092 -18.092,18.092 -9.986,0 -18.093,-8.107 -18.093,-18.092 z"
         fill-rule="evenodd"
         fill="rgba(255, 242, 66, 1)"
         id="path15"
         style="fill:#008000" />
    </g>
    <g
       id="hair">
      <path
         d="m 296.233,91.348 c 3.23,-5.913 5.066,-12.695 5.066,-19.902 0,-22.966 -18.646,-41.612 -41.613,-41.612 h -61.514 c -22.967,0 -41.613,18.646 -41.613,41.612 0,15.043 7.999,28.232 19.965,35.552 -7.924,8.126 -12.728,18.802 -12.728,30.486 0,25.463 22.815,46.136 50.918,46.136 h 93.626 c 28.103,0 50.918,-20.673 50.918,-46.136 0,-25.463 -22.815,-46.136 -50.918,-46.136 z"
         fill="rgba(5, 82, 18, 1)"
         id="path18"
         style="fill:#008000" />
    </g>
    <g
       id="neck">
      <path
         d="m 257.909,241.516 v 0 c 21.468,0 38.898,17.43 38.898,38.899 v 23.52 c 0,21.469 -17.43,38.899 -38.898,38.899 v 0 c -21.469,0 -38.899,-17.43 -38.899,-38.899 v -23.52 c 0,-21.469 17.43,-38.899 38.899,-38.899 z"
         fill="rgba(255, 249, 74, 1)"
         id="path21"
         style="fill:#008000" />
    </g>
    <g
       id="face">
      <path
         d="m 193.98,91.348 h 125.771 c 5.811,0 10.528,4.717 10.528,10.527 v 125.167 c 0,39.942 -32.428,72.37 -72.37,72.37 v 0 c -39.942,0 -72.37,-32.428 -72.37,-72.37 V 99.79 c 0,-4.659 3.782,-8.442 8.441,-8.442 z"
         fill="rgba(255, 249, 74, 1)"
         id="path24"
         style="fill:#ffff00;fill-opacity:1" />
    </g>
    <g
       id="mouth">
      <path
         d="m 241.817,250 c 0,-8.881 7.211,-16.091 16.092,-16.091 8.881,0 16.091,7.21 16.091,16.091 0,8.881 -7.21,16.091 -16.091,16.091 -8.881,0 -16.092,-7.21 -16.092,-16.091 z"
         fill="rgb(0,0,0)"
         id="path27"
         style="fill:#000000" />
    </g>
    <g
       id="g35">
      <g
         id="facial-hair">
        <path
           d="m 257.266,214.774 c 5.103,-0.002 10.19,-3.194 10.19,-2.94 0,21.8 -20.247,38 -42.047,38 -12.317,0 -26.777,-15.135 -34,-24 20.291,-0.451 44.284,1.058 55.795,-14 1.039,0.114 5.557,2.942 10.062,2.94 z"
           fill="rgba(75, 110, 38, 1)"
           id="path30"
           style="fill:#008000" />
        <path
           d="m 257.393,214.774 c -5.103,-0.002 -10.189,-3.194 -10.189,-2.94 0,21.8 20.246,38 42.047,38 12.316,0 26.776,-15.135 34,-24 -20.292,-0.451 -44.285,1.058 -55.795,-14 -1.04,0.114 -5.558,2.942 -10.063,2.94 z"
           fill="rgba(75, 110, 38, 1)"
           id="path32"
           style="fill:#008000" />
      </g>
    </g>
    <g
       id="nose">
      <path
         d="m 262.409,209 c 0,-2.208 1.792,-4 4,-4 2.207,0 4,1.792 4,4 0,2.208 -1.793,4 -4,4 -2.208,0 -4,-1.792 -4,-4 z m -16,0 c 0,-2.208 1.792,-4 4,-4 2.207,0 4,1.792 4,4 0,2.208 -1.793,4 -4,4 -2.208,0 -4,-1.792 -4,-4 z"
         fill-rule="evenodd"
         fill="rgb(236,153,113)"
         id="path37"
         style="fill:#000000" />
    </g>
    <g
       id="eyes">
      <path
         d="m 207.38,178.531 c 0,-3.984 3.235,-7.218 7.219,-7.218 3.984,0 7.218,3.234 7.218,7.218 0,3.984 -3.234,7.219 -7.218,7.219 -3.984,0 -7.219,-3.235 -7.219,-7.219 z"
         fill="#0e2c3a"
         id="path40" />
      <path
         d="m 294,178.531 c 0,-3.984 3.235,-7.218 7.219,-7.218 3.984,0 7.218,3.234 7.218,7.218 0,3.984 -3.234,7.219 -7.218,7.219 -3.984,0 -7.219,-3.235 -7.219,-7.219 z"
         fill="#0e2c3a"
         id="path42" />
    </g>
    <g
       id="eyebrows">
      <path
         d="m 283.505,138.389 h 26.605 c 4.641,0 8.408,3.767 8.408,8.408 v 1.275 c 0,4.641 -3.767,8.409 -8.408,8.409 h -26.605 c -4.641,0 -8.409,-3.768 -8.409,-8.409 v -1.275 c 0,-4.641 3.768,-8.408 8.409,-8.408 z m -77.798,0 h 26.605 c 4.641,0 8.409,3.767 8.409,8.408 v 1.275 c 0,4.641 -3.768,8.409 -8.409,8.409 h -26.605 c -4.64,0 -8.408,-3.768 -8.408,-8.409 v -1.275 c 0,-4.641 3.768,-8.408 8.408,-8.408 z"
         fill-rule="evenodd"
         fill="rgba(9, 110, 37, 1)"
         id="path45"
         style="fill:#008000" />
    </g>
    <g
       id="glasses">
      <path
         d="M 336,184.89 H 179.817 V 178 H 336 Z"
         fill="#0c2436"
         id="path48" />
      <g
         id="g26509">
        <path
           d="m 225.028,209.634 c 17.474,0 31.641,-14.163 31.641,-31.634 h -63.277 c 0,17.471 14.162,31.634 31.636,31.634 z"
           fill="rgb(12,36,54)"
           id="path50"
           style="fill:#000000" />
      </g>
      <g
         id="g26513">
        <path
           d="m 211.901,178 -14.817,14.819 c 2.641,4.98 6.577,9.169 11.362,12.115 L 235.381,178 Z"
           fill="rgb(58,77,92)"
           id="path53"
           style="fill:#ffffff" />
      </g>
      <g
         id="g26517">
        <path
           d="m 242.521,178 -29.335,29.331 c 2.975,1.203 6.183,1.965 9.53,2.211 L 254.267,178 Z"
           fill="rgb(58,77,92)"
           id="path56"
           style="fill:#ececec" />
      </g>
      <g
         id="g26521">
        <path
           d="m 292.115,209.634 c 17.468,0 31.635,-14.163 31.635,-31.634 h -63.279 c 0,17.471 14.169,31.634 31.644,31.634 z"
           fill="rgb(12,36,54)"
           id="path59"
           style="fill:#000000" />
      </g>
      <g
         id="g26525">
        <path
           d="m 278.986,178 -14.824,14.819 c 2.646,4.98 6.581,9.169 11.368,12.115 L 302.465,178 Z"
           fill="rgb(58,77,92)"
           id="path62"
           style="fill:#ffffff" />
      </g>
      <g
         id="g26529">
        <path
           d="m 309.606,178 -29.339,29.331 c 2.982,1.203 6.182,1.965 9.534,2.211 L 321.344,178 Z"
           fill="rgb(58,77,92)"
           id="path65"
           style="fill:#e6e6e6" />
      </g>
    </g>
    <g
       id="front-hair">
      <path
         d="m 275.416,89.086 c 0,-20.719 16.822,-37.541 37.542,-37.541 20.72,0 37.542,16.822 37.542,37.541 0,20.72 -16.822,37.542 -37.542,37.542 -20.72,0 -37.542,-16.822 -37.542,-37.542 z"
         fill="rgba(49, 94, 0, 1)"
         id="path69"
         style="fill:#008000" />
    </g>
  </g>
</svg>
